<svg width="39" height="46" viewBox="0 0 39 46" fill="none" xmlns="http://www.w3.org/2000/svg">
<path d="M23.0528 11.0192C23.1547 11.0381 23.2443 11.0978 23.2968 11.1889L23.3987 11.3618C24.2356 12.7823 25.647 13.7472 27.2683 14.0018C27.3609 14.0175 27.608 14.0238 27.6543 14.0269V12.9458C27.574 12.9301 27.2127 12.8892 27.1386 12.8735C25.9558 12.6032 24.9243 11.8489 24.3097 10.8055L23.3091 9.10834C23.3091 9.10519 23.303 9.10205 23.2999 9.10205C23.2906 9.10205 23.2875 9.10519 23.2875 9.10519L22.8737 9.52634C20.681 11.7578 17.7627 12.9898 14.659 12.9898H11.7282V14.0709H14.7362C17.6762 14.0709 20.5297 13.0149 22.7656 11.0978C22.8459 11.0318 22.9509 11.0035 23.0528 11.0192Z" fill="#010035" stroke="#010035" stroke-width="0.3"/>
<path d="M10.9689 19.64H10.867C10.9164 19.684 11.0801 19.9637 11.1017 20.0297C11.463 21.1926 12.1054 22.2643 12.9577 23.1349L15.3851 25.6052L13.668 27.3746L13.4302 27.4469L7.40505 29.4897C4.74916 30.3917 2.81283 32.6955 2.35268 35.5083L1.01238 43.9532C0.969141 44.214 1.04017 44.4812 1.21002 44.6823C1.37679 44.8835 1.62385 44.9998 1.88326 44.9998H37.6359C37.8614 44.9998 38.0745 44.8992 38.2196 44.7232C38.3648 44.5472 38.4265 44.3177 38.3895 44.0915L37.0275 35.5083C36.5674 32.6986 34.6311 30.3917 31.9752 29.4897L25.9438 27.4437L25.6937 27.3746L25.6844 27.3652L23.9612 25.6366L25.5269 24.0526C25.5331 24.0463 25.5393 24.04 25.5485 24.0337L24.0723 24.0275L23.7635 24.3512C23.7635 24.3512 23.4825 24.6655 23.3837 24.7692L22.9976 25.0929C22.5344 25.5643 21.9167 25.8252 21.262 25.8252H18.0503C17.4542 25.8252 16.8675 25.58 16.4444 25.1495L13.7638 22.4215C12.7601 21.4 11.9911 19.8883 11.7718 18.4897V18.8197C11.7718 19.2755 11.4105 19.64 10.9689 19.64ZM19.162 43.9186H8.3655L8.37168 43.8715L8.93991 37.834C8.95536 37.6895 8.91212 37.5512 8.82256 37.438C8.733 37.3249 8.60638 37.2557 8.46432 37.2432C8.17403 37.2149 7.91153 37.4317 7.88373 37.7272L7.30005 43.9217H2.714C2.55959 43.9217 2.41444 43.8526 2.31562 43.7332C2.21679 43.6137 2.17356 43.4566 2.19826 43.3026L3.40268 35.6906C3.79798 33.2769 5.45946 31.2969 7.74476 30.5206L13.7113 28.4966L14.7149 32.576C14.8138 32.9846 15.1164 33.2832 15.5179 33.3775C15.9224 33.4717 16.3208 33.3335 16.5833 33.0097L19.162 29.8606V43.9186ZM31.6416 30.5175C33.9239 31.2906 35.5853 33.2737 35.9837 35.6875L37.1943 43.3309C37.219 43.4786 37.1789 43.6263 37.0831 43.7395C36.9905 43.8526 36.8515 43.9186 36.7064 43.9186H32.0863L31.5027 37.724C31.4749 37.4286 31.2124 37.2117 30.9221 37.24C30.6318 37.2683 30.4156 37.5355 30.4465 37.8309L31.0178 43.9155H20.2244V29.8606L22.8031 33.0097C23.0687 33.3335 23.467 33.4686 23.8685 33.3775C24.27 33.2832 24.5726 32.9846 24.6715 32.576L25.6751 28.4935L31.6416 30.5175ZM16.2158 26.3375C16.7841 26.7115 17.445 26.9095 18.1244 26.9095H21.3331C21.9754 26.9095 22.5962 26.724 23.1304 26.3752L23.1582 26.3563L24.7178 27.9215L23.7975 31.6646C23.7666 31.7935 23.6678 31.894 23.5381 31.9223C23.5134 31.9286 23.4856 31.9317 23.4609 31.9317C23.359 31.9317 23.2632 31.8877 23.1953 31.806L20.7772 28.8517C20.6907 28.7449 20.561 28.682 20.4251 28.682H18.9551C18.8192 28.682 18.6895 28.7449 18.603 28.8517L16.1849 31.806C16.1016 31.9097 15.9688 31.9537 15.8422 31.9255C15.7155 31.8972 15.6136 31.7966 15.5827 31.6677L14.6594 27.9026L16.188 26.3217L16.2158 26.3375Z" fill="#010035" stroke="#010035" stroke-width="0.3"/>
<path d="M22.4944 41.2314C22.0621 41.2314 21.7069 41.5897 21.7069 42.0329C21.7069 42.476 22.059 42.8343 22.4944 42.8343C22.9299 42.8343 23.2819 42.476 23.2819 42.0329C23.2819 41.5897 22.9299 41.2314 22.4944 41.2314Z" fill="#010035" stroke="#010035" stroke-width="0.3"/>
<path d="M22.4944 37.8315C22.0621 37.8315 21.7069 38.1898 21.7069 38.633C21.7069 39.0761 22.059 39.4344 22.4944 39.4344C22.9299 39.4344 23.2819 39.0761 23.2819 38.633C23.2819 38.1898 22.9299 37.8315 22.4944 37.8315Z" fill="#010035" stroke="#010035" stroke-width="0.3"/>
<path d="M22.4944 34.4333C22.0621 34.4333 21.7069 34.7916 21.7069 35.2348C21.7069 35.6779 22.059 36.0362 22.4944 36.0362C22.9299 36.0362 23.2819 35.6779 23.2819 35.2348C23.2819 34.7916 22.9299 34.4333 22.4944 34.4333Z" fill="#010035" stroke="#010035" stroke-width="0.3"/>
<path d="M28.5247 19.6839H28.4228C27.9812 19.6839 27.6199 19.3193 27.6199 18.8668V18.5996C27.4037 19.9542 26.644 21.381 25.6712 22.371L24.9393 23.0908C24.9269 23.1033 24.9146 23.1159 24.8991 23.1253C25.316 23.1505 24.547 23.3925 25.3253 23.2008C25.3253 23.2008 25.8534 23.2133 25.8657 23.1756C25.8657 23.1756 26.3876 23.075 26.3907 23.0719C26.3969 23.0185 27.0856 22.3585 27.1782 22.2328C27.6631 21.5602 28.0337 20.8185 28.2777 20.0328C28.3024 19.9636 28.4753 19.7279 28.5247 19.6839Z" fill="#010035" stroke="#010035" stroke-width="0.3"/>
<path d="M19.5634 24.0591H26.5182C28.4576 24.0591 30.0357 22.4626 30.0357 20.4983V20.162C30.0357 19.964 30.1932 19.8037 30.3878 19.8037H30.7213C32.6607 19.8037 34.2388 18.2071 34.2388 16.2429V13.7789C34.2388 11.8146 32.6607 10.218 30.7213 10.218H30.2488C30.0728 10.218 29.9245 10.0891 29.8998 9.91314C29.5354 7.45857 28.3063 5.202 26.4379 3.56143C24.5571 1.90829 22.1638 1 19.6932 1C17.2226 1 14.8261 1.90829 12.9484 3.56143C11.08 5.202 9.8509 7.45857 9.48648 9.91314C9.45869 10.0891 9.31354 10.218 9.13751 10.218H8.66501C6.72559 10.218 5.14749 11.8146 5.14749 13.7789V16.2429C5.14749 18.2071 6.72559 19.8037 8.66501 19.8037H11.0986C11.4938 19.8037 11.815 19.4769 11.815 19.0777V11.12C11.815 10.6297 11.4197 10.2243 10.9349 10.218C10.8638 10.218 10.8052 10.2023 10.7527 10.174C10.6168 10.0954 10.5458 9.95086 10.5735 9.79686C10.9534 7.65657 12.0775 5.69857 13.7359 4.28429C15.4067 2.85743 17.5221 2.07171 19.6932 2.07171C21.8642 2.07171 23.9796 2.85743 25.6504 4.28429C27.3088 5.69857 28.4329 7.65657 28.8128 9.79686C28.8406 9.94771 28.7695 10.0954 28.6367 10.1709C28.5873 10.1991 28.5255 10.2149 28.4576 10.2149C27.9728 10.2211 27.5744 10.6234 27.5744 11.1169V19.0746C27.5744 19.4737 27.8955 19.8006 28.2908 19.8006H28.6213C28.8158 19.8006 28.9733 19.9609 28.9733 20.1589V20.6806C28.9733 21.5889 28.4391 22.4123 27.6083 22.7769C27.5775 22.7894 27.5497 22.7926 27.5219 22.7989C27.5064 22.7989 27.491 22.7989 27.4755 22.8083C26.4286 23.1194 24.9401 22.9811 24.9277 22.9811H19.582C19.304 22.9811 19.0693 23.1823 19.0354 23.4463C19.0168 23.6034 19.0601 23.7543 19.162 23.8706C19.267 23.99 19.4121 24.0591 19.5634 24.0591ZM31.4378 11.8806C31.4378 11.7549 31.5026 11.6386 31.6076 11.5726C31.7126 11.5066 31.8423 11.5034 31.9504 11.56C32.707 11.9591 33.1765 12.7354 33.1765 13.5903V16.4283C33.1765 17.2831 32.707 18.0594 31.9504 18.4586C31.901 18.4837 31.8454 18.4994 31.7898 18.4994C31.7342 18.4994 31.6632 18.4806 31.6076 18.446C31.4995 18.38 31.4378 18.2669 31.4378 18.138V11.8806ZM7.94853 18.1411C7.94853 18.2669 7.88368 18.3831 7.77868 18.4491C7.72309 18.4837 7.66133 18.5026 7.59647 18.5026C7.53162 18.5026 7.4853 18.49 7.43588 18.4617C6.67926 18.0626 6.20985 17.2863 6.20985 16.4314V13.5966C6.20985 12.7417 6.67926 11.9654 7.43588 11.5663C7.54397 11.5097 7.67368 11.5129 7.78177 11.5789C7.88986 11.6449 7.95162 11.758 7.95162 11.8869V18.1411H7.94853ZM10.7496 11.6511V18.3706C10.7496 18.5686 10.5921 18.7289 10.3975 18.7289H9.36295C9.16839 18.7289 9.01089 18.5686 9.01089 18.3706V11.6511C9.01089 11.4531 9.16839 11.2929 9.36295 11.2929H10.3975C10.5921 11.2929 10.7496 11.4531 10.7496 11.6511ZM28.6336 18.3706V11.6511C28.6336 11.4531 28.7911 11.2929 28.9888 11.2929H30.0234C30.2179 11.2929 30.3754 11.4531 30.3754 11.6511V18.3706C30.3754 18.5686 30.2179 18.7289 30.0234 18.7289H28.9888C28.7911 18.7289 28.6336 18.5686 28.6336 18.3706Z" fill="#E2010B" stroke="#E2010B" stroke-width="0.3"/>
</svg>
