<svg width="10" height="6" viewBox="0 0 10 6" fill="none" xmlns="http://www.w3.org/2000/svg">
<path d="M1 1.2096C1 1.18143 1.00731 1.15392 1.02134 1.12949C1.02383 1.12517 1.02618 1.12098 1.02826 1.11704C1.09689 0.998606 1.25433 0.968043 1.36736 1.05209C1.39562 1.07119 1.4158 1.09412 1.44002 1.11704C2.60266 2.21731 3.76932 3.32141 4.93195 4.42168C4.96879 4.45654 5.02199 4.46241 5.05889 4.42762C5.06227 4.42442 5.0657 4.42118 5.06921 4.41786C6.23588 3.31377 7.40255 2.20967 8.57325 1.10558C8.61766 1.06355 8.67821 1.02153 8.73877 1.00625C8.83161 0.983325 8.91235 1.02535 8.96483 1.10176C9.01731 1.17816 9.00924 1.26985 8.95272 1.34244C8.93254 1.36536 8.91235 1.38829 8.88813 1.40739C7.66091 2.57261 6.43369 3.73401 5.20646 4.89541C5.0571 5.03677 4.9481 5.03295 4.79874 4.89541C3.57151 3.73401 2.34026 2.57261 1.11303 1.40739C1.08382 1.37974 1.05984 1.34878 1.03651 1.31778C1.01305 1.2866 1 1.24862 1 1.2096Z" fill="#010035" stroke="#010035"/>
</svg>
