<svg width="21" height="20" viewBox="0 0 21 20" fill="none" xmlns="http://www.w3.org/2000/svg">
<path d="M10.0337 19.0833C15.0634 19.0833 19.1451 15.0189 19.1451 9.99996C19.1451 4.981 15.0634 0.916626 10.0337 0.916626C5.00401 0.916626 0.922302 4.981 0.922302 9.99996C0.922302 15.0189 5.00401 19.0833 10.0337 19.0833Z" stroke="#29873D" stroke-width="1.5"/>
<path fill-rule="evenodd" clip-rule="evenodd" d="M8.57971 13.1832C8.76324 13.3833 9.05164 13.3833 9.23517 13.1832L14.4265 7.55266C14.61 7.35259 14.6362 7.03819 14.4527 6.80953C14.3478 6.72379 14.2167 6.66663 14.0856 6.66663C13.9545 6.66663 13.8497 6.72379 13.771 6.80953L8.92055 12.0971L6.66574 9.63912C6.56087 9.52479 6.456 9.46763 6.3249 9.46763C6.19381 9.46763 6.08893 9.52479 6.01028 9.61053C5.9054 9.72486 5.85297 9.83919 5.85297 9.9821C5.85297 10.125 5.9054 10.2393 5.98406 10.3537L8.57971 13.1832Z" fill="#29873D" stroke="#29873D" stroke-width="0.2"/>
</svg>
