<svg width="49" height="40" viewBox="0 0 49 40" fill="none" xmlns="http://www.w3.org/2000/svg">
<path d="M48.7865 5.27201L48.79 4.93383C48.797 4.4806 48.804 4.00993 48.7025 3.51486C48.2755 1.39862 46.4835 0.0737922 44.247 0.0737922C37.6495 0.0668195 9.828 0.0528739 4.508 0.0737922C3.2165 0.080765 2.1175 0.439864 1.2425 1.32889C0.1225 2.46546 0 3.87396 0 4.83621C0.0035 6.62473 0.0035 27.2398 0 29.0283C0 29.9871 0.126 31.3956 1.2425 32.5321C2.1175 33.4246 3.2165 33.6861 4.5115 33.6931L17.6435 33.7524C17.647 34.5019 17.794 35.7675 17.794 36.4752L17.7905 37.1098C17.7905 37.1411 17.8045 37.169 17.808 37.2004C17.8045 37.2248 17.794 37.2457 17.794 37.2701C17.794 37.8803 16.961 38.7588 16.2925 38.7588H14.028C13.5765 38.7588 13.594 38.7414 13.594 39.1877C13.594 39.6339 13.5765 39.9059 14.028 39.9059L30.8945 40L34.895 39.9059C35.3465 39.9059 35.329 39.6374 35.329 39.1877C35.329 38.7379 35.0315 38.8425 34.58 38.8425H32.2C31.5315 38.8425 31.0135 37.8803 31.0135 37.2701C31.0135 37.2178 30.9925 37.1725 30.982 37.1237C30.989 37.0749 31.01 37.0296 31.01 36.9808C31.003 36.4334 30.9995 34.7146 31.003 33.6931H44.24C46.4765 33.6896 48.2685 32.4589 48.692 30.3496C48.7935 29.8511 48.7865 29.3804 48.7795 28.9272L48.776 28.5925C48.79 27.0027 48.79 6.86529 48.7865 5.27201Z" fill="white"/>
<path d="M48.7026 3.42423C48.2896 1.38469 46.5606 0.0110481 44.4011 0.0110481C37.4361 0.00407531 9.71957 -0.00987027 4.35407 0.0110481C3.10457 0.0180209 2.04407 0.457307 1.20057 1.31496C0.126071 2.4062 0.00357056 3.77984 0.00357056 4.71768C0.00707056 6.54107 0.00707056 27.2781 0.00357056 29.1015C0.00357056 30.0359 0.126071 31.406 1.20057 32.5008C2.04407 33.3619 3.10457 33.8012 4.35757 33.8047L17.6436 33.85V34.0383C17.6471 34.9238 17.6436 36.2312 17.6401 36.6077L17.6366 37.2388C17.6366 37.2388 17.6436 37.4061 17.6401 37.4201C17.6331 38.1348 16.9996 38.7135 16.2261 38.7135H13.9441C13.5941 38.7135 13.3106 38.9959 13.3106 39.3411C13.3106 39.6862 13.5941 39.9686 13.9441 39.9686H16.0371C16.0546 39.9686 16.0686 39.9686 16.0791 39.9721C16.0896 39.9686 16.1036 39.9686 16.1211 39.9686H34.9756C35.3256 39.9686 35.6091 39.6862 35.6091 39.3411C35.6091 38.9959 35.3256 38.7135 34.9756 38.7135H32.5781C31.7976 38.7135 31.1641 38.1278 31.1641 37.4096C31.1641 37.4026 31.1606 37.1237 31.1606 37.1167C31.1536 36.5659 31.1501 35.0179 31.1536 33.9929V33.8047H44.3976C46.5571 33.8012 48.2861 32.431 48.6956 30.395C48.7936 29.9208 48.7866 29.4641 48.7796 29.0248L48.7761 28.6657C48.7796 27.1491 48.7796 6.89319 48.7796 5.15697L48.7831 4.7909C48.7936 4.35161 48.7971 3.89489 48.7026 3.42423ZM18.5466 38.717L18.6726 38.4451C18.8266 38.1139 18.9071 37.7687 18.9071 37.4166C18.9071 37.4166 18.9001 37.2492 18.9036 37.2353V36.6147C18.9036 36.2242 18.9071 34.8889 18.9071 33.9964V33.8047H29.8901V33.9964C29.8866 35.0563 29.8936 36.6077 29.8971 37.1377C29.8971 37.1446 29.9006 37.4026 29.9006 37.4096C29.9006 37.7687 29.9776 38.1173 30.1316 38.4451L30.2576 38.717H18.5466ZM47.4601 30.1474C47.1661 31.6048 45.9656 32.5496 44.4011 32.5531H14.0806C14.0666 32.5531 14.0421 32.56 14.0176 32.567C14.0001 32.5705 13.9826 32.5775 13.9686 32.5809L13.9476 32.5879H13.9231L4.35757 32.5565C3.44757 32.5531 2.70907 32.2532 2.10357 31.6327C1.51557 31.033 1.26357 30.2764 1.26707 29.112V26.9086H47.5126L47.5161 29.0318C47.5266 29.4014 47.5336 29.7918 47.4601 30.1474ZM47.5196 4.79438L47.5161 5.16045C47.5196 6.41556 47.5196 19.3187 47.5161 25.4582V25.65H1.27057V25.4582C1.27407 18.9596 1.27057 6.15059 1.26707 4.71419C1.26357 3.54625 1.51557 2.79319 2.10707 2.19004C2.71257 1.57295 3.45107 1.26964 4.36107 1.26615C9.38007 1.24523 34.0376 1.25918 44.4046 1.26615C45.9656 1.26615 47.1661 2.21096 47.4636 3.67176C47.5336 4.03086 47.5266 4.41785 47.5196 4.79438Z" fill="#010035"/>
<path d="M26.8906 3.88428C22.9811 3.88428 19.8031 7.03598 19.8031 10.9059C19.8031 14.7758 22.9846 17.931 26.8906 17.931C30.7966 17.931 33.9781 14.7793 33.9781 10.9059C33.9781 7.03249 30.8001 3.88428 26.8906 3.88428ZM32.9631 10.9094C32.9596 14.2214 30.2366 16.9199 26.8906 16.9234C23.5446 16.9234 20.8181 14.2249 20.8181 10.9094C20.8181 7.5938 23.5411 4.89533 26.8906 4.89533C30.2401 4.89533 32.9631 7.5938 32.9631 10.9094Z" fill="#E2010B"/>
<path d="M28.5111 8.40281L28.5321 8.40979C28.7946 8.51089 29.0886 8.37841 29.1901 8.12042C29.2391 7.99491 29.2356 7.85894 29.1796 7.73343C29.1236 7.6114 29.0256 7.51378 28.8961 7.46497C26.9851 6.73283 24.8291 7.68113 24.0906 9.57424C24.0556 9.6614 24.0276 9.74856 23.9996 9.83572H23.3836C23.1036 9.83572 22.8761 10.0623 22.8761 10.3412C22.8761 10.6202 23.1036 10.8468 23.3836 10.8468H23.8421C23.8386 10.9862 23.8456 11.1292 23.8596 11.2686H23.3836C23.1036 11.2686 22.8761 11.4952 22.8761 11.7742C22.8761 12.0531 23.1036 12.2797 23.3836 12.2797H24.1081C24.6891 13.7126 26.0856 14.5912 27.5626 14.5912C28.0036 14.5912 28.4481 14.5145 28.8821 14.3506L28.8926 14.3471C29.0186 14.2983 29.1201 14.2042 29.1761 14.0787C29.2321 13.9566 29.2356 13.8172 29.1866 13.6917C29.0851 13.4337 28.7911 13.3012 28.5286 13.4023C27.2931 13.873 25.9071 13.3918 25.2351 12.2797H27.8181C28.0981 12.2797 28.3256 12.0531 28.3256 11.7742C28.3256 11.4952 28.0981 11.2686 27.8181 11.2686H24.8781C24.8606 11.1466 24.8536 11.0246 24.8536 10.9026V10.8433H28.1261C28.4061 10.8433 28.6336 10.6167 28.6336 10.3378C28.6336 10.0589 28.4061 9.83224 28.1261 9.83224H25.0776C25.6481 8.54576 27.1566 7.90077 28.5111 8.40281Z" fill="#E2010B"/>
<path d="M10.3812 17.0875C10.4582 17.0875 10.5387 17.07 10.6122 17.0352L18.2177 13.3535C18.3472 13.2908 18.4417 13.1827 18.4872 13.0502C18.5327 12.9177 18.5257 12.7748 18.4627 12.6493C18.3332 12.3878 18.0147 12.2797 17.7522 12.4087L10.1467 16.0903C10.0172 16.1531 9.92268 16.2612 9.87718 16.3937C9.83168 16.5261 9.83868 16.6691 9.90168 16.7946C9.99618 16.9794 10.1852 17.0875 10.3812 17.0875Z" fill="#E2010B"/>
<path d="M19.4284 15.0339C19.4739 14.9014 19.4669 14.7585 19.4039 14.633C19.2744 14.3715 18.9559 14.2634 18.6934 14.3889L7.21693 19.7719C7.08743 19.8347 6.99293 19.9427 6.94743 20.0752C6.90193 20.2077 6.90893 20.3507 6.97193 20.4762C7.06293 20.6644 7.25543 20.7725 7.45143 20.7725C7.52843 20.7725 7.60893 20.7551 7.68243 20.7202L19.1589 15.3372C19.2884 15.2745 19.3829 15.1664 19.4284 15.0339Z" fill="#E2010B"/>
<path d="M13.7512 13.2419C13.8282 13.2419 13.9087 13.2245 13.9822 13.1897L16.7227 11.8613C16.8522 11.7986 16.9467 11.6905 16.9922 11.558C17.0377 11.4255 17.0307 11.2826 16.9677 11.1571C16.8382 10.8956 16.5197 10.7875 16.2572 10.9165L13.5167 12.2448C13.3872 12.3076 13.2927 12.4157 13.2472 12.5482C13.2017 12.6806 13.2087 12.8236 13.2717 12.9491C13.3627 13.1339 13.5552 13.2419 13.7512 13.2419Z" fill="#E2010B"/>
<path d="M17.7624 11.1326C17.8184 11.1535 17.8779 11.1605 17.9339 11.1605C18.1544 11.1605 18.3609 11.0245 18.4379 10.8048C18.4834 10.6724 18.4764 10.5294 18.4134 10.4039C18.3504 10.2784 18.2419 10.1808 18.1089 10.1355C17.8324 10.0413 17.5279 10.1878 17.4334 10.4632C17.3879 10.5957 17.3949 10.7386 17.4579 10.8641C17.5209 10.9931 17.6294 11.0872 17.7624 11.1326Z" fill="#E2010B"/>
<path d="M20.2964 16.7109C20.3419 16.5784 20.3314 16.4354 20.2719 16.3099C20.1424 16.0484 19.8239 15.9404 19.5614 16.0694L11.9559 19.751C11.8264 19.8137 11.7319 19.9218 11.6864 20.0543C11.6409 20.1868 11.6514 20.3297 11.7109 20.4552C11.8019 20.6435 11.9944 20.7516 12.1904 20.7516C12.2674 20.7516 12.3479 20.7341 12.4214 20.6993L20.0269 17.0177C20.1529 16.9514 20.2474 16.8433 20.2964 16.7109Z" fill="#E2010B"/>
<path d="M20.0689 18.1367L17.3284 19.465C17.1989 19.5278 17.1044 19.6359 17.0589 19.7684C17.0134 19.9008 17.0204 20.0438 17.0834 20.1693C17.1744 20.3576 17.3669 20.4656 17.5629 20.4656C17.6399 20.4656 17.7204 20.4482 17.7939 20.4133L20.5344 19.085C20.6639 19.0223 20.7584 18.9142 20.8039 18.7817C20.8494 18.6492 20.8389 18.5063 20.7794 18.3808C20.6499 18.1193 20.3314 18.0112 20.0689 18.1367Z" fill="#E2010B"/>
<path d="M21.7211 17.4604C21.4446 17.3663 21.1401 17.5127 21.0456 17.7881C21.0001 17.9206 21.0071 18.0636 21.0701 18.1891C21.1331 18.3146 21.2416 18.4122 21.3746 18.4575C21.4306 18.4784 21.4901 18.4854 21.5461 18.4854C21.7666 18.4854 21.9731 18.3494 22.0501 18.1298C22.0956 17.9973 22.0886 17.8544 22.0256 17.7289C21.9661 17.5999 21.8576 17.5057 21.7211 17.4604Z" fill="#E2010B"/>
</svg>
