<svg width="35" height="42" viewBox="0 0 35 42" fill="none" xmlns="http://www.w3.org/2000/svg">
<path d="M25.5604 16.1024C25.5612 15.92 25.5084 15.7413 25.4085 15.5891C25.3086 15.4368 25.166 15.3178 24.9987 15.2476C24.8313 15.1774 24.647 15.1593 24.4693 15.1958C24.2918 15.2322 24.1293 15.3213 24.0023 15.4515C24.0022 15.4516 24.0021 15.4517 24.0021 15.4518L16.6107 22.951L12.7668 19.051C12.6823 18.9653 12.5819 18.8972 12.4713 18.8507C12.3606 18.8042 12.242 18.7803 12.1221 18.7803C12.0022 18.7803 11.8835 18.8042 11.7729 18.8507C11.6622 18.8972 11.5619 18.9653 11.4774 19.051C11.393 19.1367 11.3261 19.2383 11.2805 19.35C11.2349 19.4617 11.2115 19.5813 11.2115 19.702C11.2115 19.8227 11.2349 19.9424 11.2805 20.054C11.3261 20.1657 11.393 20.2673 11.4774 20.353L15.9652 24.9063C15.9653 24.9064 15.9654 24.9065 15.9655 24.9067C16.0495 24.9931 16.1498 25.0619 16.2604 25.109C16.3713 25.1561 16.4904 25.1804 16.6107 25.1804C16.731 25.1804 16.85 25.1561 16.9609 25.109L16.9022 24.9709L16.9609 25.109C17.0716 25.062 17.1718 24.9932 17.2558 24.9067C17.2559 24.9065 17.256 24.9064 17.2562 24.9063L25.291 16.7541C25.2912 16.7539 25.2914 16.7538 25.2915 16.7536C25.3769 16.6685 25.4446 16.567 25.4907 16.4553C25.5369 16.3435 25.5606 16.2235 25.5604 16.1024Z" fill="#010035" stroke="#010035" stroke-width="0.3"/>
<path d="M17.8492 0.918776L17.8496 0.918963L33.5858 7.54902C33.5862 7.54916 33.5865 7.54929 33.5869 7.54943C33.7559 7.61801 33.9001 7.73695 34.0005 7.89014C34.1009 8.04323 34.1528 8.22339 34.1499 8.40677V16.4623C34.1499 21.7628 32.6151 26.8886 29.7011 31.2903C26.7871 35.6921 22.6833 39.0743 17.8461 41.0828L17.8444 41.0835C17.6231 41.1722 17.3768 41.1722 17.1555 41.0835L17.154 41.0829C12.3317 39.0876 8.20523 35.6794 5.30135 31.2941C2.3975 26.9087 0.847839 21.745 0.850005 16.4623C0.850005 16.4623 0.850005 16.4623 0.850005 16.4623L0.850005 8.40576V8.40549H1.00001C0.99944 8.25174 1.04418 8.10132 1.12847 7.97354C1.21276 7.84576 1.33277 7.74646 1.47309 7.68838L17.8492 0.918776ZM17.8492 0.918776C17.7391 0.872796 17.621 0.849419 17.5018 0.85005L17.8492 0.918776ZM1.41572 7.54978C1.41557 7.54984 1.41542 7.54991 1.41527 7.54997L17.5014 1.00005C17.4018 0.998825 17.3031 1.01827 17.2113 1.0572L17.1531 0.918965L17.1529 0.919026C17.1529 0.919048 17.1528 0.919069 17.1528 0.919091L1.41572 7.54978ZM17.7809 39.1043L17.7798 39.1047L17.5042 39.2306L17.2286 39.1047L17.2275 39.1043C12.9008 37.1677 9.22188 33.9965 6.63878 29.9766C4.05567 25.9566 2.67987 21.2613 2.67906 16.462C2.67906 16.462 2.67906 16.462 2.67906 16.462V9.01907L17.5042 2.77675L32.3293 9.01907V16.462C32.3293 26.2692 26.6215 35.1518 17.7809 39.1043Z" fill="#E2010B" stroke="#E2010B" stroke-width="0.3"/>
</svg>
