<svg width="42" height="42" viewBox="0 0 42 42" fill="none" xmlns="http://www.w3.org/2000/svg">
<path d="M26.2172 7.87256H15.7827C15.5245 7.87256 15.3123 8.08116 15.3123 8.34119C15.3123 8.60123 15.5217 8.80983 15.7827 8.80983H26.2172C26.4754 8.80983 26.6876 8.60123 26.6876 8.34119C26.6847 8.08116 26.4754 7.87256 26.2172 7.87256Z" fill="#010035" stroke="#010035" stroke-width="0.3"/>
<path d="M26.2172 12.1558H15.7827C15.5245 12.1558 15.3123 12.3644 15.3123 12.6215C15.3123 12.8787 15.5217 13.0902 15.7827 13.0902H26.2172C26.4754 13.0902 26.6876 12.8816 26.6876 12.6215C26.6847 12.3644 26.4754 12.1558 26.2172 12.1558Z" fill="#010035" stroke="#010035" stroke-width="0.3"/>
<path d="M29.289 8.06384H35.0742V15.6935H36.0522L36.0494 7.55519C36.0465 7.53233 36.0408 7.50662 36.035 7.48375L36.0293 7.46089L36.0178 7.38946C35.9977 7.35231 35.9748 7.31802 35.9461 7.28373L29.6131 1.10287C29.5816 1.0743 29.5357 1.04572 29.4898 1.02572L29.4095 1.01715C29.3808 1.00857 29.3492 1.00286 29.3205 1H9.77372C8.35683 1.01715 7.1952 2.18302 7.18086 3.5975V10.9557H8.12163V3.56893C8.13884 2.65737 8.8645 1.9287 9.77085 1.91155H28.8215V7.60663C28.8186 7.85523 29.028 8.06384 29.289 8.06384ZM29.7594 2.56022L34.403 7.12942H29.7594V2.56022Z" fill="#010035" stroke="#010035" stroke-width="0.3"/>
<path d="M35.9833 27.1007C35.9804 26.5406 35.8571 26.1519 35.6133 25.9491C35.4125 25.7976 35.2232 25.7833 35.163 25.7833L34.7356 25.7462C34.0644 25.6862 33.0491 25.5976 32.8455 25.5404L32.811 25.5347C32.768 25.5319 32.53 25.4404 32.3378 25.369L32.3206 25.3633C32.2317 25.329 32.1341 25.2947 32.0338 25.2575C31.8531 25.1947 31.6466 25.1204 31.4257 25.0432C29.8252 24.4746 27.1492 23.5259 25.7036 23.3658C23.7934 23.1172 21.7685 23.0772 20.2885 23.2573C18.9547 23.3973 18.1316 23.6516 13.4621 26.1405C7.92649 26.532 6.63293 27.3978 6.20844 27.6836L6.19983 27.6893C5.4541 28.2008 5.60324 30.5097 5.75813 31.0526C5.78107 31.1669 5.77247 31.1898 5.74666 31.2555C5.74092 31.2669 5.73805 31.2812 5.73231 31.2955C5.67208 31.387 5.53154 31.6127 5.61472 31.9099C5.73518 32.4671 6.46084 32.6157 6.87386 32.6157H9.36059C9.87687 33.2615 10.6656 33.6473 11.4802 33.6473C12.2948 33.6473 13.0491 33.2844 13.5711 32.65H27.8118C28.3338 33.2844 29.0939 33.6473 29.9027 33.6473C30.7115 33.6473 31.5462 33.2444 32.0624 32.5643C33.1265 32.5014 35.5301 32.3357 35.7911 32.1271C36.3017 31.7241 36.7778 30.0496 35.9833 27.1007ZM20.3831 24.2174C20.5351 24.2031 20.6957 24.1888 20.8621 24.1774V26.0348C20.8621 26.0605 20.8621 26.0862 20.865 26.1119C18.9547 26.1262 16.8696 26.1377 15.533 26.1434C18.6421 24.5403 19.3477 24.3374 20.3831 24.2174L20.3716 24.1402L20.3831 24.2174ZM29.9027 32.6843C28.9361 32.6843 28.1502 31.8956 28.1502 30.924C28.1502 29.9525 28.9361 29.1638 29.9027 29.1638C30.8693 29.1638 31.6552 29.9382 31.6552 30.924C31.6523 31.8956 30.8664 32.6843 29.9027 32.6843ZM11.4745 32.6843C10.5079 32.6843 9.72199 31.8956 9.72199 30.924C9.72199 29.9525 10.5079 29.1638 11.4745 29.1638C12.441 29.1638 13.2241 29.9382 13.2241 30.924C13.2269 31.8956 12.441 32.6843 11.4745 32.6843ZM25.6721 26.9806C25.7811 26.9721 25.9044 26.9606 26.0478 26.9606C28.0183 26.8549 29.8425 25.9891 30.1866 25.6433C30.1895 25.6404 30.1924 25.6376 30.1952 25.6347C30.6828 25.8062 31.1331 25.9662 31.4659 26.0862L31.6953 26.1691C32.1485 26.3491 32.3952 26.4291 32.53 26.472L32.5988 26.4949C32.8914 26.5749 33.8866 26.652 34.5463 26.7035C34.727 26.7177 34.8762 26.7292 34.9765 26.7377C34.9851 26.8178 34.9851 26.9606 34.9851 27.1549V27.2578L34.9909 27.2978C35.6592 29.8067 35.3265 31.0926 35.1802 31.3441C34.9278 31.3812 33.8407 31.4755 32.5414 31.5641C32.5931 31.3555 32.6189 31.1412 32.6189 30.924C32.6189 29.421 31.4028 28.2008 29.9056 28.2008C28.4083 28.2008 27.1922 29.4238 27.1922 30.924C27.1922 31.1841 27.2295 31.4384 27.3012 31.687H14.0817C14.1534 31.4384 14.1907 31.1841 14.1907 30.924C14.1907 29.421 12.9745 28.2008 11.4773 28.2008C9.98013 28.2008 8.76401 29.4238 8.76401 30.924C8.76401 31.1698 8.79843 31.4155 8.8644 31.6527H6.87099C6.79355 31.6527 6.7075 31.6413 6.63293 31.627C6.71324 31.447 6.76487 31.1955 6.64154 30.824C6.49526 30.2325 6.56123 28.6809 6.73905 28.498C7.71711 27.8265 9.88261 27.375 13.3531 27.1207C13.465 27.1207 24.5678 27.1035 25.4455 26.9949C25.5115 26.9949 25.586 26.9863 25.6721 26.9806L25.6635 26.9035L25.6721 26.9806ZM21.8229 26.1062C21.8229 26.0834 21.8258 26.0605 21.8258 26.0376V24.1374C23.0075 24.1145 24.3298 24.1802 25.566 24.326C26.2801 24.4088 27.3844 24.6946 28.9418 25.2061C28.0441 25.5404 26.5211 26.0034 26.0077 26.0319C25.8585 26.0319 25.7294 26.0434 25.6118 26.0548C25.5315 26.0634 25.4598 26.0691 25.3967 26.0691C25.1701 26.0777 23.9684 26.0891 21.8229 26.1062Z" fill="#E2010B"/>
<path d="M34.891 28.3236C34.4866 27.9979 34.1797 27.815 33.9846 27.7007C34.0649 27.695 34.1567 27.695 34.2456 27.695C34.4493 27.695 34.6673 27.5321 34.6673 27.272C34.6673 27.0692 34.5066 26.8491 34.2456 26.8491C33.7122 26.8491 33.3249 26.952 33.0984 27.1549C32.9693 27.2863 32.9033 27.4435 32.9033 27.6292C32.9033 28.0379 33.0811 28.2036 33.4081 28.3693H33.411C33.6032 28.4465 33.9015 28.6465 34.3489 28.998L34.3632 29.0066C34.4378 29.0437 34.5181 29.0837 34.6042 29.0837C34.7476 29.0837 34.8652 29.0266 34.9369 28.9208C35.0143 28.838 35.0516 28.7322 35.043 28.6151C35.0315 28.4979 34.977 28.3893 34.891 28.3236Z" fill="#E2010B"/>
<path d="M8.23124 28.3069C8.15667 28.2554 8.06776 28.2354 7.97311 28.2526C7.85264 28.2754 7.74365 28.3583 7.67194 28.4783C7.60598 28.6126 7.61745 28.7641 7.70349 28.887C7.52567 28.9155 7.32776 28.9441 7.13846 28.9698L7.11838 28.9727C6.89466 29.0184 6.74551 29.2013 6.74551 29.4299C6.74551 29.6585 6.96923 29.8157 7.17288 29.8185C7.6576 29.7842 8.78194 29.6471 8.79341 29.1213C8.86225 28.6926 8.47217 28.4269 8.23124 28.3069Z" fill="#E2010B"/>
<path d="M21.964 27.9038H20.725C20.4726 27.9038 20.3033 28.0753 20.3033 28.3267C20.3033 28.5782 20.4726 28.7496 20.725 28.7496H21.964C22.2164 28.7496 22.3856 28.5782 22.3856 28.3267C22.3856 28.0753 22.2164 27.9038 21.964 27.9038Z" fill="#E2010B"/>
<path d="M1 13.6587V38.2936C1 39.7852 2.21899 40.9997 3.71906 40.9997H38.2809C39.7781 40.9997 41 39.7852 41 38.2936V18.3222C41 16.8306 39.781 15.6161 38.2809 15.6161H12.1545V13.6587C12.1516 12.1699 10.9326 10.9555 9.43539 10.9526H3.71619C2.22186 10.9526 1.00287 12.1671 1 13.6587ZM2.01821 13.6587C2.02108 12.7272 2.78402 11.9671 3.71619 11.9642H9.43539C10.3704 11.9671 11.1334 12.7272 11.1362 13.6587V16.1248C11.1362 16.4048 11.3657 16.6306 11.6468 16.6306H38.2809C39.216 16.6334 39.9789 17.3935 39.9818 18.3222L39.9646 38.2936C39.9617 39.2165 39.2074 39.9767 38.2867 39.9881H3.71906C2.78402 39.9852 2.02108 39.2251 2.01821 38.2936V13.6587Z" fill="#010035" stroke="#010035" stroke-width="0.3"/>
</svg>
