<svg width="51" height="50" viewBox="0 0 51 50" fill="none" xmlns="http://www.w3.org/2000/svg">
<rect width="50.5556" height="50" rx="25" fill="#F00075"/>
<path d="M31.7208 10H18.2787C13.7138 10 10 13.714 10 18.2789V31.721C10 36.286 13.7138 39.9998 18.2787 39.9998H31.7208C36.286 39.9998 39.9998 36.2858 39.9998 31.721V18.2789C40 13.714 36.286 10 31.7208 10ZM37.3383 31.721C37.3383 34.8183 34.8183 37.3381 31.721 37.3381H18.2787C15.1815 37.3383 12.6617 34.8183 12.6617 31.721V18.2789C12.6617 15.1817 15.1815 12.6617 18.2787 12.6617H31.7208C34.8181 12.6617 37.3381 15.1817 37.3381 18.2789V31.721H37.3383Z" fill="white"/>
<path d="M25 17.2703C20.7375 17.2703 17.2698 20.738 17.2698 25.0005C17.2698 29.2628 20.7375 32.7303 25 32.7303C29.2625 32.7303 32.7302 29.2628 32.7302 25.0005C32.7302 20.738 29.2625 17.2703 25 17.2703ZM25 30.0684C22.2053 30.0684 19.9315 27.7949 19.9315 25.0003C19.9315 22.2055 22.2052 19.9318 25 19.9318C27.7948 19.9318 30.0684 22.2055 30.0684 25.0003C30.0684 27.7949 27.7946 30.0684 25 30.0684Z" fill="white"/>
<path d="M33.0545 15.0127C32.5416 15.0127 32.0379 15.2203 31.6757 15.5841C31.3118 15.9461 31.1025 16.4501 31.1025 16.9647C31.1025 17.4777 31.3119 17.9814 31.6757 18.3452C32.0377 18.7072 32.5416 18.9166 33.0545 18.9166C33.5691 18.9166 34.0713 18.7072 34.435 18.3452C34.7988 17.9814 35.0064 17.4775 35.0064 16.9647C35.0064 16.4501 34.7988 15.9461 34.435 15.5841C34.073 15.2203 33.5691 15.0127 33.0545 15.0127Z" fill="white"/>
</svg>
