<svg width="68" height="35" viewBox="0 0 68 35" fill="none" xmlns="http://www.w3.org/2000/svg">
<path d="M12.9443 4.05908H3.12736C2.70476 4.05908 2.35988 4.40884 2.35988 4.84233C2.35988 5.27583 2.70476 5.62558 3.12736 5.62558H12.9443C13.3669 5.62558 13.7118 5.27583 13.7118 4.84233C13.7118 4.40884 13.3718 4.05908 12.9443 4.05908Z" fill="#E2010B"/>
<path d="M19.6978 1.63037H6.05313C5.63053 1.63037 5.28564 1.98012 5.28564 2.41362C5.28564 2.84712 5.63053 3.19687 6.05313 3.19687H19.6978C20.1204 3.19687 20.4653 2.84712 20.4653 2.41362C20.4702 1.98012 20.1253 1.63037 19.6978 1.63037Z" fill="#E2010B"/>
<path d="M5.68877 6.49219H2.51683C2.13794 6.49219 1.82706 6.84194 1.82706 7.27544C1.82706 7.70894 2.13794 8.05869 2.51683 8.05869H5.68877C5.87335 8.05869 6.04822 7.97495 6.17452 7.82716C6.30567 7.67938 6.37853 7.48234 6.37853 7.27051C6.37853 6.84687 6.06765 6.49219 5.68877 6.49219Z" fill="#E2010B"/>
<path d="M0.796081 6.49219C0.592066 6.49219 0.397767 6.57593 0.252042 6.72371C-0.0491223 7.02913 -0.0491223 7.52667 0.252042 7.83209C0.397767 7.97987 0.592066 8.06362 0.796081 8.06362C1.0001 8.06362 1.19439 7.97987 1.34012 7.83209C1.64128 7.52667 1.64128 7.02913 1.34012 6.72371C1.19439 6.57593 1.0001 6.49219 0.796081 6.49219Z" fill="#E2010B"/>
<path d="M63.6914 11.7685L63.5748 11.7488L61.8601 6.01478L62.0301 5.97537C62.4042 5.89163 62.6713 5.55172 62.6713 5.16749V4.07882C62.6713 1.82759 60.8741 0 58.6688 0H50.445C50.1439 0 49.8573 0.118227 49.6435 0.339901C49.4298 0.55665 49.3132 0.847291 49.3181 1.15764L49.3764 14.8473V18.202H0.772341C0.344882 18.202 0 18.5567 0 18.9901V26.5961C0 27.6552 0.845203 28.5123 1.87985 28.5123H16.5058V28.7586C16.5058 32.202 19.2502 35 22.6262 35C26.0021 35 28.7466 32.202 28.7466 28.7586V28.5123H51.5137V28.7586C51.5137 32.202 54.2582 35 57.6341 35C61.0101 35 63.7546 32.202 63.7546 28.7586V28.5123H67.1839C67.6308 28.5123 68 28.1379 68 27.6847V16.8719C67.9806 14.2857 66.1687 12.1379 63.6914 11.7685ZM57.6293 24.1872C60.1017 24.1872 62.1127 26.2365 62.1127 28.7537C62.1127 31.2709 60.1017 33.3202 57.6293 33.3202C55.1568 33.3202 53.1458 31.2709 53.1458 28.7537C53.1458 26.2365 55.1617 24.1872 57.6293 24.1872ZM63.74 19.0197V17.6897H66.3533V20.3547H65.0466C64.3277 20.3547 63.74 19.7537 63.74 19.0197ZM62.9239 16.0296C62.477 16.0296 62.1079 16.4039 62.1079 16.8571V19.0197C62.1079 20.67 63.4242 22.0099 65.0418 22.0099H66.3485V26.8374H63.4388L63.3951 26.7143C62.5402 24.202 60.2134 22.5123 57.6098 22.5123C55.0062 22.5123 52.6795 24.202 51.8246 26.7143L51.7808 26.8374H50.9939V13.3645H62.8899C64.3812 13.3645 65.6927 14.3399 66.1493 15.7931L66.2222 16.0296H62.9239ZM51.0182 11.7044V5.9803H60.1649L61.8698 11.7044H51.0182ZM51.0182 4.31034V1.6601H58.6882C59.99 1.6601 61.0489 2.73892 61.0489 4.06404V4.31034H51.0182ZM22.631 24.1872C25.1035 24.1872 27.1145 26.2365 27.1145 28.7537C27.1145 31.2709 25.1035 33.3202 22.631 33.3202C20.1586 33.3202 18.1476 31.2709 18.1476 28.7537C18.1476 26.2365 20.1634 24.1872 22.631 24.1872ZM49.3764 19.8621V26.8374H28.4455L28.4017 26.7143C27.5468 24.202 25.2201 22.5123 22.6165 22.5123C20.0129 22.5123 17.6861 24.202 16.8312 26.7143L16.7875 26.8374H1.87499C1.74384 26.8374 1.63697 26.7291 1.63697 26.5911V19.8621H49.3764Z" fill="#010035"/>
<path d="M8.57871 15.5216C8.71958 15.6595 10.342 15.8714 13.5333 16.0585C14.16 16.896 15.18 17.4477 16.3167 17.4477C17.4533 17.4477 17.9828 16.9452 18.6143 16.162H38.3988C39.0303 16.9403 39.7686 17.4477 40.8567 17.4477C41.9448 17.4477 42.9649 16.9255 43.5963 16.1177H46.9917C47.4143 16.1177 48.3615 15.9797 48.5024 15.3393C48.5947 15.0191 48.4538 14.7876 48.3615 14.6497C48.313 14.5117 48.2692 14.4674 48.313 14.2359C48.5024 13.5955 48.6919 10.6595 47.7932 10.0635C47.2249 9.69894 45.5733 8.59549 38.1657 8.09303C32.0307 4.93047 30.8989 4.56101 29.1065 4.37874C27.1732 4.14722 24.4821 4.19648 21.9319 4.51667C19.7606 4.7482 15.5589 6.26052 13.5333 6.94524C13.0136 7.12751 12.5424 7.30978 12.4501 7.30978C12.1198 7.40337 10.376 7.5413 9.33648 7.62997C9.19561 7.62997 9.00617 7.67431 8.81673 7.81224C8.53499 8.04377 8.39413 8.50189 8.39413 9.18662C7.34977 12.9108 7.91809 15.0191 8.57871 15.5216Z" fill="white"/>
<path d="M48.8465 14.7542L48.8319 14.7098C48.8027 14.6359 48.7979 14.6162 48.8173 14.5079C49.0116 13.8034 49.2739 10.5226 48.1761 9.75909L48.1664 9.74923C47.5835 9.35514 45.8202 8.15317 38.3154 7.6113C31.9958 4.19258 30.8737 3.84283 29.057 3.64578C27.0412 3.39455 24.287 3.44874 21.7028 3.79357C19.7258 4.01032 16.0924 5.32066 13.926 6.10391L13.8871 6.11869C13.6005 6.22214 13.3382 6.31573 13.1002 6.39948C12.969 6.44874 12.8427 6.49307 12.7262 6.54234L12.6922 6.55711C12.459 6.64578 12.1384 6.76894 12.085 6.77879L12.017 6.78864C11.7498 6.86253 10.3849 6.98569 9.47651 7.06943L8.91789 7.11869C8.78189 7.11869 8.51472 7.1581 8.22327 7.37977C7.87839 7.67534 7.69866 8.22707 7.69381 9.02509C7.22263 10.8133 7.03319 12.4438 7.14005 13.7443C7.2372 14.8576 7.53837 15.6655 7.99011 16.03C8.26699 16.2517 9.97197 16.4586 13.0516 16.6507C13.7705 17.5867 14.8732 18.1433 16.0244 18.1433C17.1756 18.1433 18.1763 17.6458 18.9 16.7739H38.0968C38.8206 17.6458 39.865 18.1433 40.9725 18.1433C42.08 18.1433 43.1729 17.6162 43.8918 16.7246H47.2143C47.8021 16.7246 48.8367 16.5029 49.0116 15.6852C49.133 15.2271 48.9388 14.897 48.8465 14.7542ZM28.3624 7.57682C28.3624 7.57682 28.3624 7.57189 28.3624 7.57682V5.13347C28.5519 5.14825 28.7316 5.16303 28.9016 5.18273C30.2471 5.34036 31.1749 5.60145 35.0463 7.62115C33.2782 7.60638 30.7426 7.5916 28.3624 7.57682ZM40.9725 11.9808C42.2257 11.9808 43.2409 13.0202 43.2409 14.296C43.2409 15.5719 42.2208 16.6113 40.9725 16.6113C39.7241 16.6113 38.704 15.5719 38.704 14.296C38.6992 12.9955 39.6998 11.9808 40.9725 11.9808ZM16.0195 11.9808C17.2728 11.9808 18.288 13.0202 18.288 14.296C18.288 15.5719 17.2679 16.6113 16.0195 16.6113C14.7712 16.6113 13.7511 15.5719 13.7511 14.296C13.7511 13.0202 14.7469 11.9808 16.0195 11.9808ZM47.4281 14.1138C47.3018 14.498 47.2921 14.8478 47.3989 15.1729C47.3309 15.1827 47.2678 15.1877 47.2143 15.1877H44.6447C44.7127 14.8921 44.7516 14.5916 44.7516 14.2911C44.7516 12.168 43.0563 10.4438 40.9773 10.4438C38.8983 10.4438 37.2031 12.168 37.2031 14.2911C37.2031 14.6113 37.2419 14.9266 37.3196 15.2369H19.6869C19.7647 14.9266 19.8035 14.6113 19.8035 14.2911C19.8035 12.168 18.1083 10.4438 16.0293 10.4438C13.9503 10.4438 12.255 12.168 12.255 14.2911C12.255 14.5473 12.2793 14.8034 12.3327 15.0547C10.7103 14.9414 9.35021 14.8231 8.9519 14.7689C8.7236 14.301 8.43215 12.4241 9.24335 9.33051L9.25306 9.10884C9.25306 8.90687 9.25306 8.74431 9.25792 8.63101C9.3745 8.62115 9.52994 8.60638 9.70481 8.59652L9.75824 8.5916C10.9435 8.498 12.0364 8.4044 12.425 8.29603L12.5076 8.2714C12.6873 8.21229 13.0273 8.10391 13.6345 7.85761L13.9843 7.72953C14.4457 7.56204 15.0092 7.35514 15.6164 7.13839C16.2187 7.69997 18.6669 8.80342 21.2705 8.94628C21.4502 8.94628 21.6202 8.96106 21.7708 8.97583C21.8825 8.98569 21.9748 8.99554 22.0671 8.99554C23.2863 9.14332 38.0337 9.16795 38.432 9.16795C43.1049 9.51771 46.0194 10.1285 47.3358 11.0349C47.4961 11.2911 47.6369 13.2566 47.4281 14.1138ZM26.8566 7.56204C24.0198 7.54234 22.4266 7.52263 22.1157 7.50785C22.0477 7.50785 21.9603 7.498 21.8388 7.48815C21.6834 7.47337 21.5036 7.45859 21.3191 7.45859H21.3142C20.6827 7.42411 18.8612 6.87731 17.6419 6.43396C19.5947 5.79357 20.9888 5.42904 21.9068 5.32066C23.5389 5.12854 25.2876 5.03495 26.8566 5.0645V7.56204Z" fill="#E2010B"/>
<path d="M11.294 9.06362C11.0366 8.83209 10.5946 8.71387 9.98251 8.71387C9.6862 8.71387 9.50647 8.9651 9.50647 9.20155C9.50647 9.50205 9.75421 9.68924 9.98251 9.68924C10.0942 9.68924 10.2157 9.68924 10.3177 9.69909C10.0894 9.83209 9.72992 10.0488 9.24903 10.4429C9.15188 10.5168 9.08873 10.6449 9.07901 10.7779C9.0693 10.9109 9.11302 11.0341 9.20045 11.1277C9.28303 11.2508 9.41418 11.3149 9.57934 11.3149C9.67649 11.3149 9.76392 11.2705 9.85136 11.2262L9.87079 11.2163C10.3857 10.8025 10.7306 10.571 10.9589 10.4774C11.3183 10.2951 11.5272 10.0932 11.5272 9.6252C11.5223 9.40352 11.4495 9.22126 11.294 9.06362Z" fill="#E2010B"/>
<path d="M46.7829 11.621C46.5206 11.5816 46.2534 11.5422 46.0057 11.5028C46.1223 11.3452 46.1417 11.1383 46.0494 10.9462C45.962 10.7984 45.8211 10.69 45.6657 10.6604C45.5442 10.6358 45.4325 10.6604 45.3402 10.7294C44.8059 11.0053 44.5436 11.3846 44.6067 11.7984C44.6116 12.0348 44.8399 12.5816 46.7246 12.7196C46.982 12.7196 47.2638 12.5127 47.2638 12.2171C47.2638 11.9215 47.0743 11.6801 46.7829 11.621Z" fill="#E2010B"/>
<path d="M28.4513 10.1528H26.7706C26.4354 10.1528 26.212 10.3844 26.212 10.7243C26.212 11.0642 26.4354 11.2957 26.7706 11.2957H28.4513C28.7864 11.2957 29.0099 11.0642 29.0099 10.7243C29.0099 10.3844 28.7864 10.1528 28.4513 10.1528Z" fill="#E2010B"/>
</svg>
