<svg width="18" height="18" viewBox="0 0 18 18" fill="none" xmlns="http://www.w3.org/2000/svg">
<path d="M16.6012 13.1107L14.4997 10.9677C14.4846 10.9525 14.1219 10.5939 13.5908 10.5939C13.3084 10.5939 13.0351 10.6925 12.7788 10.8876C12.1403 11.3727 10.9047 12.706 10.4977 13.1508C9.77561 12.8275 6.87665 11.3382 4.89699 7.52101L7.02542 5.3349C7.29134 5.07881 7.64525 4.35222 7.0818 3.43585C6.48039 2.45897 4.92146 1.36412 4.76939 1.25886C4.69982 1.20333 4.41796 1 4.00327 1C3.73735 1 3.47529 1.08371 3.22367 1.24892C2.42207 1.77714 1.05179 3.26567 1.00009 5.49376C0.999264 5.52636 1.00421 5.55868 1.01466 5.5899C1.04161 5.66864 3.7973 13.508 12.2153 16.9793C12.2486 16.9931 12.2841 17 12.3198 17C12.3234 17 12.3267 17 12.3303 16.9997C12.4359 16.9956 14.7235 16.8848 16.3523 15.2628C16.3551 15.2603 16.3586 15.2595 16.3611 15.257C16.3633 15.2548 16.3639 15.2518 16.3658 15.2498C16.5157 15.0993 16.6622 14.9407 16.7986 14.7631C16.9944 14.468 17.2056 13.7436 16.6012 13.1107ZM16.3523 14.4409C16.2902 14.5216 16.2244 14.5959 16.1584 14.6702L14.7422 13.274C14.6339 13.1668 14.4598 13.1685 14.3534 13.2779C14.247 13.3867 14.2486 13.5616 14.3572 13.6685L15.7693 15.0603C14.4455 16.2281 12.701 16.4182 12.3663 16.4442C4.55875 13.1953 1.78519 6.09077 1.55117 5.45619C1.61689 3.4853 2.81943 2.17634 3.52506 1.71139C3.68538 1.60613 3.84597 1.55281 4.00327 1.55281C4.25434 1.55281 4.42538 1.69011 4.42538 1.69011C4.43281 1.69647 4.44078 1.70255 4.44875 1.70807C4.4647 1.71912 6.0558 2.82032 6.61376 3.72648C7.07025 4.46881 6.68746 4.89288 6.63851 4.94233L6.58131 5.00117L5.16236 3.60271C5.05374 3.49552 4.87994 3.49773 4.77352 3.60658C4.6671 3.7157 4.66875 3.89031 4.77737 3.99722L6.19687 5.39596L4.36543 7.27679C4.28321 7.36132 4.26341 7.48896 4.31648 7.59422C6.67481 12.2943 10.3215 13.6831 10.4755 13.7398C10.5808 13.779 10.6988 13.7494 10.7741 13.666C10.7903 13.6481 12.396 11.8706 13.1104 11.328C13.2694 11.2072 13.4308 11.1462 13.5908 11.1462C13.8889 11.1462 14.1092 11.3567 14.1092 11.3567L16.2068 13.4956C16.6421 13.9517 16.3721 14.4081 16.3523 14.4409Z" fill="white" stroke="white" stroke-width="0.3"/>
</svg>
