<svg width="50" height="51" viewBox="0 0 50 51" fill="none" xmlns="http://www.w3.org/2000/svg">
<path d="M25 0C11.1934 0 0 11.1934 0 25C0 35.5967 6.58436 44.6502 15.8848 48.2922C15.6584 46.3169 15.4733 43.2716 15.9671 41.1111C16.4198 39.1564 18.8889 28.6831 18.8889 28.6831C18.8889 28.6831 18.1481 27.1811 18.1481 24.9794C18.1481 21.5021 20.1646 18.9095 22.6749 18.9095C24.8148 18.9095 25.8436 20.5144 25.8436 22.428C25.8436 24.5679 24.4856 27.7778 23.7654 30.7613C23.1687 33.251 25.0206 35.2881 27.4691 35.2881C31.9136 35.2881 35.3292 30.5967 35.3292 23.8477C35.3292 17.8601 31.0288 13.6831 24.8765 13.6831C17.7572 13.6831 13.5802 19.0123 13.5802 24.5268C13.5802 26.6667 14.4033 28.9712 15.4321 30.2263C15.6379 30.4733 15.6584 30.6996 15.5967 30.9465C15.4115 31.7284 14.9794 33.4362 14.8971 33.786C14.7942 34.2387 14.5267 34.3416 14.0535 34.1152C10.9259 32.6543 8.97119 28.107 8.97119 24.4239C8.97119 16.5432 14.6914 9.30041 25.4938 9.30041C34.1564 9.30041 40.9053 15.4733 40.9053 23.7449C40.9053 32.3663 35.4733 39.3004 27.9424 39.3004C25.4115 39.3004 23.0247 37.9835 22.2222 36.4198C22.2222 36.4198 20.9671 41.1934 20.6584 42.3663C20.1029 44.5473 18.5802 47.2634 17.5514 48.93C19.8971 49.6502 22.3663 50.0412 24.9588 50.0412C38.7654 50.0412 49.9588 38.8477 49.9588 25.0412C50 11.1934 38.8066 0 25 0Z" fill="#E60023"/>
</svg>
