<svg width="68" height="35" viewBox="0 0 68 35" fill="none" xmlns="http://www.w3.org/2000/svg">
<path d="M26.3592 3.09009L17.2116 0.043659C17.0416 -0.014553 16.857 -0.014553 16.6821 0.043659L7.53934 3.08524C7.19928 3.20166 6.96609 3.51698 6.96609 3.87595V11.4872C6.96609 19.894 16.6092 22.9113 16.7064 22.9404C16.7841 22.9647 16.8667 22.9744 16.9444 22.9744C17.027 22.9744 17.1096 22.9647 17.1873 22.9404C17.2845 22.9113 26.9276 19.894 26.9276 11.4872V3.88565C26.9325 3.52183 26.6993 3.20651 26.3592 3.09009ZM25.2565 4.48718V11.4969C25.2565 14.2474 24.0274 16.6535 21.5984 18.6473C19.6892 20.2141 17.5857 21.0388 16.9493 21.2668C16.3129 21.0388 14.2094 20.2141 12.3002 18.6473C9.87118 16.6535 8.64211 14.2474 8.64211 11.4969V4.48718L16.9493 1.72211L25.2565 4.48718Z" fill="#E2010B"/>
<path d="M15.5933 14.369C15.7536 14.5291 15.9625 14.6116 16.1859 14.6116C16.4094 14.6116 16.6183 14.5243 16.7786 14.369L22.1127 9.04262C22.273 8.88254 22.3605 8.67394 22.3605 8.4508C22.3605 8.22765 22.273 8.01906 22.1127 7.85897C21.9524 7.69889 21.7435 7.61157 21.52 7.61157C21.2966 7.61157 21.0877 7.69889 20.9273 7.85897L16.1859 12.5936L13.7278 10.1389C13.5723 9.98371 13.3586 9.8964 13.1351 9.8964C12.9116 9.8964 12.7028 9.98371 12.5424 10.1389C12.217 10.464 12.217 10.9927 12.5424 11.3226L15.5933 14.369Z" fill="#E2010B"/>
<path d="M66.3989 21.0913C66.3989 19.9804 66.1657 19.243 65.6994 18.8744C65.3885 18.6512 65.0775 18.5785 64.8444 18.5785C63.1343 18.4329 60.2633 18.2098 59.7192 18.0594C59.5637 18.0594 58.7864 17.7635 57.9314 17.4676C54.5891 16.3567 47.6762 13.9166 44.1055 13.548C39.9131 13.0289 35.4826 12.9561 32.3006 13.3248C29.3469 13.6207 27.4863 14.2125 17.3865 19.3158C5.19295 20.1308 2.47246 21.9062 1.53973 22.4932C0.0628949 23.4537 0.373807 28.1883 0.684719 29.2216C0.762447 29.5902 0.684719 29.663 0.606991 29.8861C0.451535 30.1093 0.218351 30.478 0.373807 30.997C0.606991 32.0303 2.16155 32.2534 2.8611 32.2534H8.45266C9.49228 33.5535 11.1343 34.3976 12.9609 34.3976C14.7875 34.3976 15.968 33.5826 17.0076 32.3262H49.5708C50.6153 33.5826 51.5577 34.3976 53.3552 34.3976C55.1526 34.3976 56.9064 33.5098 57.9411 32.1564C63.1975 31.8605 65.8645 31.5161 66.0977 31.2929C67.1762 30.4828 68.1041 27.0774 66.3989 21.0913Z" fill="white"/>
<path d="M2.49687 32.7152H8.21474L8.23417 32.7394C9.3175 34.1559 11.0081 35 12.7667 35C14.5253 35 16.1381 34.2044 17.236 32.8171L17.2555 32.7928H49.3474L49.3669 32.8171C50.4648 34.2044 52.0922 35 53.8362 35C55.5802 35 57.3631 34.1171 58.4465 32.6376L58.4659 32.6133H58.495C63.8583 32.298 66.5302 31.9245 66.7439 31.711C67.8224 30.867 68.7843 27.2918 67.0403 20.8933V20.8739C67.0403 19.7193 66.8071 18.9383 66.3553 18.56C66.0055 18.298 65.6898 18.2592 65.5294 18.2592C65.238 18.2349 64.9173 18.2058 64.5773 18.1767C62.8867 18.0263 60.788 17.842 60.3071 17.711C60.1759 17.7062 59.8164 17.5703 59.1509 17.3229C58.9371 17.2453 58.7137 17.158 58.4805 17.0755C58.0773 16.9349 57.6206 16.7748 57.1251 16.6001C53.5739 15.3486 47.6326 13.2481 44.4408 12.8988C40.2095 12.3507 35.7305 12.2633 32.4513 12.6611C29.5268 12.9667 27.7099 13.5295 17.3089 19.0402L17.2846 19.0499C4.98902 19.9085 2.15681 21.7956 1.22407 22.4165L1.20464 22.4311C-0.267333 23.4352 0.0484371 28.4415 0.364207 29.5329C0.432219 29.8822 0.388497 30.0035 0.325343 30.1733C0.310769 30.2072 0.301053 30.2412 0.286479 30.2848L0.276763 30.2994C0.150455 30.4886 -0.107019 30.8767 0.0484371 31.4248C0.252473 32.4435 1.68558 32.7152 2.49687 32.7152ZM12.7618 33.5544C10.4154 33.5544 8.51107 31.648 8.51107 29.3098C8.51107 26.9716 10.4203 25.0652 12.7618 25.0652C15.1034 25.0652 17.0126 26.9328 17.0126 29.3098C17.0174 31.6528 15.1082 33.5544 12.7618 33.5544ZM53.8362 33.5544C51.4898 33.5544 49.5855 31.648 49.5855 29.3098C49.5855 26.9716 51.4947 25.0652 53.8362 25.0652C56.1778 25.0652 58.087 26.9328 58.087 29.3098C58.087 31.6868 56.1778 33.5544 53.8362 33.5544ZM35.4438 18.8995C35.473 18.7685 35.4876 18.623 35.4876 18.4775V14.1892C35.4876 14.1261 35.4827 14.0631 35.4778 14L35.473 13.9321H35.541C38.2663 13.869 41.3414 14.0146 44.2077 14.3444C45.9323 14.5385 48.6576 15.2661 52.5391 16.5565L52.7092 16.6147L52.544 16.6826C50.9068 17.3618 46.5492 18.7491 45.1501 18.8171C44.8344 18.8171 44.5526 18.8413 44.3 18.8656C44.1105 18.8801 43.9453 18.8995 43.8045 18.8995C43.2944 18.9238 40.501 18.9529 35.507 18.9917H35.4244L35.4438 18.8995ZM20.6124 18.9432C28.4677 14.8732 30.134 14.3832 32.5825 14.1019C33.01 14.0582 33.4763 14.0194 33.9719 13.9903L34.0447 13.9855L34.0399 14.0582C34.0399 14.097 34.035 14.1407 34.035 14.1843V18.4726C34.035 18.623 34.0496 18.7685 34.0787 18.9044L34.0982 18.982H34.0156C29.0118 19.0159 23.4883 19.0451 20.6415 19.0596H20.3646L20.6124 18.9432ZM1.64186 29.174C1.32123 27.8884 1.39896 24.1532 1.97706 23.6584C4.20203 22.1254 9.09889 21.1019 16.9397 20.5295C17.1972 20.5295 42.1236 20.4907 43.8676 20.253C44.0085 20.253 44.1737 20.2384 44.3583 20.219C44.6109 20.1947 44.8975 20.1705 45.2181 20.1705C49.5175 19.9425 53.4719 18.0894 54.2151 17.3521C54.254 17.3132 54.288 17.2696 54.322 17.2114L54.3512 17.1677L54.3998 17.1871C55.5414 17.5849 56.6053 17.9633 57.4603 18.2689L57.9558 18.4435C58.9517 18.8413 59.4958 19.0159 59.7921 19.1081C59.8456 19.1275 59.8941 19.1421 59.9282 19.1518C60.55 19.3216 62.7458 19.4913 64.1983 19.6029C64.7376 19.6466 65.1651 19.6757 65.3643 19.6999L65.3983 19.7048L65.4128 19.7387C65.5003 19.9085 65.5003 20.2141 65.5003 20.9515V21.1795C66.982 26.7145 66.3261 29.9259 65.8015 30.5371L65.7869 30.5516L65.7675 30.5565C65.4517 30.6341 62.4397 30.8864 59.3258 31.0998L59.2286 31.1047L59.2578 31.0125C59.4326 30.4595 59.5249 29.8871 59.5249 29.3098C59.5249 26.1712 56.9696 23.6196 53.8265 23.6196C50.6834 23.6196 48.1281 26.1712 48.1281 29.3098C48.1281 29.9792 48.2447 30.6341 48.4779 31.2599L48.5119 31.3472H18.0765L18.1105 31.2599C18.3437 30.6341 18.4603 29.9792 18.4603 29.3098C18.4603 26.1712 15.905 23.6196 12.7618 23.6196C9.6187 23.6196 7.06339 26.1712 7.06339 29.3098C7.06339 29.9453 7.17027 30.5759 7.38402 31.1823L7.41317 31.2696H2.49201C2.15681 31.2696 1.75845 31.1871 1.52527 31.1095L1.44754 31.0852L1.49126 31.0125C1.73416 30.605 1.94306 30.0714 1.64186 29.174Z" fill="#010035"/>
<path d="M63.8623 20.1509C62.7255 20.1509 61.9191 20.3595 61.4576 20.767C61.2098 21.0144 61.0835 21.3151 61.0835 21.6644C61.0835 22.4648 61.4187 22.7753 62.0746 23.1051C62.5215 23.2846 63.2065 23.7358 64.2121 24.5265C64.3676 24.6041 64.5084 24.672 64.6493 24.672C64.9068 24.672 65.1011 24.575 65.2274 24.3858C65.3634 24.2451 65.4315 24.0656 65.4169 23.8667C65.4023 23.663 65.31 23.4787 65.1643 23.3719C64.1878 22.5909 63.4688 22.1835 63.0413 21.936C62.949 21.8827 62.8713 21.839 62.8033 21.8002L62.677 21.7275L62.813 21.6838C63.0607 21.6013 63.4688 21.6013 63.8623 21.6013C64.2121 21.6013 64.5862 21.3248 64.5862 20.8785C64.5862 20.5244 64.3093 20.1509 63.8623 20.1509Z" fill="#010035"/>
<path d="M6.22269 25.2884C6.35871 24.4638 5.562 23.935 5.0762 23.6924L5.06648 23.6876C4.97904 23.6245 4.87702 23.5906 4.77014 23.5906C4.73128 23.5906 4.69727 23.5954 4.65841 23.6003C4.45437 23.6391 4.26005 23.7846 4.1386 23.9835C3.99286 24.2794 4.08031 24.6335 4.35721 24.8421L4.48352 24.9343L4.32806 24.9586C3.84712 25.0362 3.28845 25.1186 2.74921 25.1963C2.35572 25.2739 2.09338 25.5892 2.09338 25.9967C2.09338 26.3654 2.47231 26.637 2.81237 26.6419C5.97493 26.4139 6.22269 25.5504 6.22269 25.2884Z" fill="#010035"/>
<path d="M36.1439 22.8291H33.3797C32.9424 22.8291 32.6558 23.1105 32.6558 23.5519C32.6558 23.9933 32.9376 24.2747 33.3797 24.2747H36.1439C36.5811 24.2747 36.8677 23.9933 36.8677 23.5519C36.8677 23.1105 36.5811 22.8291 36.1439 22.8291Z" fill="#010035"/>
</svg>
