<svg width="44" height="42" viewBox="0 0 44 42" fill="none" xmlns="http://www.w3.org/2000/svg">
<path d="M20.8329 16.653C21.9831 22.4201 23.8073 28.0368 26.2696 33.3798C26.8716 34.6884 28.1627 35.5218 29.5825 35.5308H29.7233C33.8959 35.4045 37.7959 34.1921 41.3095 31.9267C42.5526 31.1265 43.1937 29.6614 42.948 28.1933C41.8457 21.6379 39.8777 15.251 37.098 9.21615C36.4749 7.86537 35.124 7.02301 33.6473 7.06813C30.8316 7.15538 28.1447 7.73299 25.6136 8.79497L24.035 9.52902C23.364 9.87499 22.705 10.2541 22.058 10.6692C20.8179 11.4695 20.1739 12.9346 20.4195 14.4027C20.4555 14.6163 20.4944 14.8269 20.5304 15.0374L20.8329 16.653ZM21.9532 14.0116C21.8663 13.2143 22.2288 12.4352 22.9027 12.0019C26.1737 9.89605 29.8012 8.76789 33.6862 8.64755H33.7701C34.5788 8.65357 35.3157 9.1289 35.6602 9.878C38.38 15.7865 40.3091 22.035 41.3874 28.452C41.5282 29.2913 41.1628 30.1307 40.4528 30.585C37.1819 32.6909 33.5544 33.819 29.6694 33.9394C28.8276 33.9634 28.0548 33.4821 27.6984 32.7089C25.2152 27.3148 23.394 21.6349 22.2737 15.8046L21.9532 14.0116ZM33.8869 13.0068C33.809 13.0068 33.7311 13.0188 33.6533 13.0429L25.4129 15.606C24.9965 15.7354 24.7629 16.1806 24.8917 16.5988C24.9965 16.9358 25.305 17.1554 25.6405 17.1584C25.7184 17.1584 25.7993 17.1463 25.8802 17.1223L34.1205 14.5591C34.5369 14.4297 34.7705 13.9845 34.6417 13.5663C34.5339 13.2234 34.2224 13.0068 33.8869 13.0068ZM34.6328 15.4285C34.5549 15.4285 34.477 15.4406 34.3991 15.4646L26.1587 18.0278C25.7424 18.1572 25.5087 18.6024 25.6375 19.0206C25.7424 19.3575 26.0509 19.5771 26.3864 19.5802C26.4643 19.5802 26.5451 19.5681 26.626 19.5441L34.8664 16.9809C35.2828 16.8515 35.5164 16.4063 35.3876 15.9881C35.2828 15.6482 34.9712 15.4285 34.6328 15.4285ZM37.2238 23.9875C37.065 23.9875 36.9033 24.0116 36.7445 24.0597L29.0613 26.4484C28.2076 26.7131 27.7313 27.6247 27.9949 28.4821L28.7078 30.7956C28.9205 31.4875 29.5555 31.9357 30.2415 31.9388C30.4032 31.9388 30.568 31.9177 30.7297 31.8665L38.413 29.4779C39.2667 29.2131 39.7429 28.3016 39.4793 27.4442L38.7664 25.1277C38.5538 24.4357 37.9127 23.9875 37.2238 23.9875ZM37.2238 25.5729C37.2418 25.5729 37.2567 25.585 37.2627 25.6L37.9756 27.9165C37.9816 27.9375 37.9697 27.9616 37.9487 27.9676L34.8604 28.9273L34.1235 26.5356L37.2118 25.5759C37.2148 25.5729 37.2178 25.5729 37.2238 25.5729ZM32.6139 27.0019L33.3507 29.3936L30.2625 30.3533C30.2415 30.3593 30.2205 30.3473 30.2115 30.3262L29.4986 28.0098C29.4926 27.9887 29.5046 27.9676 29.5256 27.9586L32.6139 27.0019Z" fill="#010035" stroke="white" stroke-width="0.3"/>
<path d="M22.2735 15.8045C23.1841 15.1366 23.9599 14.2732 24.541 13.2533C24.7567 12.8743 24.6278 12.3899 24.2474 12.1703C23.87 11.9537 23.3877 12.0831 23.1691 12.4651C22.8366 13.0488 22.4232 13.5662 21.9529 14.0115C21.9529 14.0115 21.2011 14.7184 20.5301 15.0373C20.2006 15.2118 19.8591 15.3562 19.5027 15.4705L19.9131 12.8322C20.1227 11.4934 19.293 10.2208 17.99 9.87789L10.9927 8.02771C11.4989 5.15767 13.8414 2.92843 16.7859 2.62157C17.0105 2.59751 17.2352 2.58547 17.4568 2.58547C20.7847 2.57946 23.6543 5.10954 24.0078 8.50605C24.0437 8.846 24.0497 9.18896 24.0348 9.52891L25.6133 8.79485C25.6073 8.64443 25.5954 8.49401 25.5804 8.34359C25.1401 4.12879 21.5815 0.988001 17.4538 1.00003C17.1783 1.00003 16.8997 1.01508 16.6211 1.04516C13.0146 1.42121 10.136 4.12578 9.46207 7.62458L7.40122 7.08005C6.09522 6.73409 4.75328 7.43204 4.277 8.70159L1.36846 16.4693C1.10786 17.1673 1.15279 17.9465 1.49427 18.6053C1.83574 19.2672 2.44082 19.7545 3.15672 19.9441L5.47517 20.5578L5.23554 23.6414L3.99544 25.7954C3.93253 25.9037 3.89659 26.0241 3.8906 26.1474L3.70788 29.4116L2.77331 30.6059C2.67745 30.7293 2.62054 30.8767 2.60856 31.0301L2.29105 34.8688L1.11385 36.8153C0.9491 37.0891 0.964077 37.438 1.15279 37.6968L3.33944 40.6781C3.48921 40.8827 3.72585 41 3.96848 41C4.04935 41 4.13323 40.988 4.2141 40.9639L8.33579 39.6492C8.5934 39.568 8.79109 39.3574 8.85999 39.0957L13.1854 22.5945L15.378 23.1751C15.5907 23.2323 15.8093 23.2593 16.025 23.2624C16.5372 23.2654 17.0465 23.1179 17.4808 22.8321C18.1008 22.426 18.5232 21.7702 18.637 21.0331L19.2361 17.1853C19.7903 17.062 20.3264 16.8845 20.8327 16.6529L22.2735 15.8045ZM6.70629 8.57524C6.80214 8.57223 6.90099 8.58426 6.99984 8.61134L9.3123 9.22205C9.31529 9.49281 9.32727 9.76657 9.35423 10.0373C9.3722 10.2148 9.39916 10.3923 9.42912 10.5698C9.14455 10.618 8.86898 10.7142 8.61137 10.8646C8.05422 11.1926 7.65583 11.716 7.49108 12.3448C7.32634 12.9736 7.4162 13.6264 7.7397 14.189C8.0662 14.7485 8.58741 15.1486 9.21345 15.3141L12.3676 16.1474C12.5683 16.2016 12.769 16.2257 12.9697 16.2287C13.398 16.2317 13.8234 16.1204 14.2038 15.8977C14.761 15.5698 15.1593 15.0464 15.3241 14.4176C15.4888 13.7888 15.399 13.136 15.0755 12.5734C14.749 12.0139 14.2278 11.6137 13.6017 11.4483L11.0856 10.7834C11.0107 10.4856 10.9568 10.1787 10.9268 9.87187C10.9178 9.79666 10.9148 9.71844 10.9089 9.64323L17.5886 11.4092C18.1098 11.5476 18.4393 12.053 18.3555 12.5885L17.0794 20.7864C17.0345 21.0843 16.8697 21.337 16.6181 21.5024C16.3665 21.6679 16.07 21.716 15.7794 21.6378L3.5611 18.4068C3.27055 18.3315 3.0369 18.142 2.89911 17.8743C2.76133 17.6065 2.74335 17.3057 2.84819 17.0229L5.75674 9.25514C5.90951 8.846 6.28992 8.58426 6.70629 8.57524ZM9.83649 12.1192H9.85147C10.0462 12.6306 10.2918 13.124 10.5883 13.5873C10.7381 13.8219 10.9897 13.9513 11.2473 13.9543C11.3941 13.9543 11.5439 13.9152 11.6757 13.831C12.0441 13.5963 12.1519 13.1059 11.9153 12.7359C11.8913 12.6998 11.8704 12.6607 11.8464 12.6246L13.1973 12.9826C13.6467 13.0999 13.9162 13.5632 13.7964 14.0145C13.6796 14.4657 13.2183 14.7365 12.769 14.6161L9.61483 13.7828C9.39617 13.7257 9.21644 13.5873 9.10262 13.3917C8.98879 13.1962 8.95884 12.9705 9.01575 12.7509C9.07266 12.5313 9.21045 12.3508 9.40515 12.2365C9.53995 12.1583 9.68672 12.1192 9.83649 12.1192ZM7.02679 20.9639L8.12611 21.2557L3.63299 38.4037L2.73736 37.1823L3.73783 35.5307C3.80073 35.4254 3.83967 35.3081 3.84866 35.1847L4.16018 31.3971L5.10074 30.1938C5.19959 30.0674 5.2595 29.911 5.26849 29.7485L5.4572 26.4212L6.69131 24.2732C6.75122 24.1709 6.78417 24.0566 6.79315 23.9392L7.02679 20.9639ZM9.65078 21.6589L10.9957 22.0139L11.6547 22.1883L7.44016 38.2684L5.10074 39.0144L9.65078 21.6589Z" fill="#E2010B" stroke="white" stroke-width="0.3"/>
</svg>
