<svg width="67" height="40" viewBox="0 0 67 40" fill="none" xmlns="http://www.w3.org/2000/svg">
<path d="M30.624 8.2352L32.6147 9.22119L34.2322 8.24468L34.103 8.12617C34.0791 8.10247 34.0504 8.0835 34.0217 8.06454L31.093 6.6377C30.935 6.56185 30.758 6.53815 30.5809 6.56185L20.6128 8.23046C20.6558 7.94129 20.541 7.64265 20.2969 7.45304L10.8265 0.171861C10.5489 -0.0319738 10.1756 -0.0509352 9.87893 0.129198C3.78222 3.94518 0.461097 9.77107 0.00169104 17.4504C-0.0174509 17.7443 0.121328 18.0288 0.365388 18.1994L9.83586 24.7221C9.97464 24.8122 10.1373 24.8596 10.3048 24.8643C10.3335 24.8691 10.3575 24.8691 10.3862 24.8691C10.4197 24.8691 10.4532 24.8643 10.4915 24.8596C10.7212 24.8122 10.9222 24.6652 11.0418 24.4614L11.4246 23.7741L12.7167 24.6084L13.937 23.3854L12.286 22.314L19.5839 10.0745L30.624 8.2352ZM18.6746 8.29682L10.056 22.826L1.71968 17.1091C2.25087 10.3352 5.05037 5.35306 10.2761 1.86891L18.6746 8.29682Z" fill="#010035"/>
<path d="M51.9047 26.2719C51.8856 25.632 51.3352 24.8783 51.3017 24.8356C51.1438 24.6176 50.9572 24.4185 50.7514 24.2431L39.0605 14.952L39.0126 14.9141L36.8113 15.3454L49.7129 25.5751C50.2489 26.0017 50.3973 26.727 50.0958 27.3196L50.0862 27.3053L50.0001 27.4475C49.7895 27.7889 49.445 28.0259 49.0478 28.097C48.6601 28.1633 48.2582 28.0685 47.9423 27.8315L36.3375 19.0097C35.969 18.7253 35.4379 18.7964 35.1507 19.1662C34.8684 19.5359 34.9354 20.0621 35.3086 20.3465L46.2674 28.6279L46.8704 29.083L48.708 30.5051C49.0334 30.7468 49.2488 31.1213 49.3014 31.5242C49.4067 32.3538 48.8133 33.1123 47.9806 33.2213C47.5978 33.2687 47.2149 33.1739 46.9039 32.9511L44.09 30.9601L34.878 24.0819C34.5047 23.8022 33.9735 23.8781 33.6959 24.2478C33.5619 24.4279 33.5045 24.646 33.5332 24.8688C33.5667 25.0916 33.6816 25.2859 33.8634 25.4234L43.511 32.6193C44.2766 33.1976 44.4633 34.2736 43.9321 35.07C43.6641 35.473 43.2525 35.7432 42.774 35.838C42.2955 35.9328 41.8121 35.838 41.4101 35.5678C41.3958 35.5583 41.3814 35.5488 41.3671 35.5393L36.7969 32.3206L33.4136 29.8414C33.2317 29.7087 33.0068 29.6565 32.7867 29.6897C32.5618 29.7229 32.3656 29.8414 32.2364 30.0263C32.1024 30.2064 32.0497 30.4292 32.0832 30.652C32.1167 30.8748 32.2364 31.0692 32.423 31.2019L35.6149 33.5105L38.4336 35.5678C39.1322 36.0465 39.3093 37.0041 38.826 37.7009C38.5915 38.0375 38.2421 38.265 37.8354 38.3409C37.4286 38.4167 37.0218 38.3266 36.6773 38.0944L29.9633 33.7807L28.719 34.9326L35.7393 39.4786C36.2801 39.8293 36.8926 40 37.4956 40C38.5484 40 39.5869 39.488 40.2042 38.5447C40.4913 38.1039 40.6684 37.6014 40.7162 37.0847C41.2331 37.3786 41.8121 37.535 42.4103 37.535C42.6256 37.535 42.8458 37.516 43.0611 37.4781C44.6451 37.1842 45.808 35.8617 45.9133 34.2879C47.3441 35.307 49.3397 34.9894 50.3781 33.5721C51.2969 32.3159 51.1677 30.5999 50.1006 29.4906C51.34 28.9313 52.0818 27.6419 51.9047 26.2719Z" fill="#010035"/>
<path d="M14.8704 11.1551H14.8847C16.1672 11.1551 17.2105 10.1217 17.22 8.84651C17.22 7.63772 16.2869 6.64225 15.1001 6.53322L15.1096 6.50952H14.8847C14.2674 6.50952 13.6836 6.74654 13.2433 7.17791C12.7982 7.61402 12.5542 8.19709 12.5494 8.81333C12.5398 10.098 13.5831 11.1456 14.8704 11.1551ZM15.5308 8.84651C15.5308 9.1499 15.3154 9.40587 15.0283 9.47224L14.8943 9.47698H14.8799C14.5306 9.47698 14.2387 9.1973 14.2339 8.84651C14.2291 8.49099 14.5114 8.19709 14.8704 8.19235H14.8799C15.2293 8.19235 15.5212 8.47203 15.526 8.82281V8.84651H15.5308Z" fill="#010035"/>
<path d="M66.9985 17.4547C66.5391 9.77536 63.2132 3.94473 57.1213 0.128751C56.8246 -0.0561224 56.437 -0.0419013 56.1594 0.171414L46.7033 7.42415C46.3635 7.68013 46.2678 8.14942 46.4832 8.51443L46.598 8.70404L43.7459 9.83699C42.4299 9.41036 41.1474 8.85574 39.9318 8.20157C37.6492 6.99752 35.9168 6.96908 33.95 8.1115L32.5526 8.96002C32.0358 9.18282 31.385 9.38665 30.7102 9.59523C28.8152 10.183 26.8579 10.7945 26.3459 12.2166C26.0874 12.9609 26.2214 13.781 26.6904 14.4019C28.7434 17.5306 35.7637 15.8999 37.1419 15.5444L39.2858 15.1225L37.8119 13.9516C37.587 13.7762 37.3238 13.7241 37.0558 13.7999C35.1368 14.3261 29.3799 15.3879 28.1021 13.4491L28.0926 13.4349C27.9346 13.25 27.8629 13.013 27.9059 12.7713C28.1356 12.1455 29.911 11.5909 31.0883 11.2259L31.1792 11.1975C32.2081 10.9367 33.1987 10.5338 34.1271 9.99342C35.7876 8.83203 36.9074 8.50969 39.1422 9.68056C40.5444 10.4485 42.0375 11.0742 43.5688 11.5293C43.7411 11.5862 43.9277 11.5862 44.1096 11.5246L47.4786 10.1499L54.4989 22.0197L51.2447 24.7406L51.3165 24.8402C51.3213 24.8497 51.8142 25.5418 51.9003 26.1201L51.9291 26.4093L55.4033 23.475L55.968 24.423C56.0876 24.6221 56.2886 24.7691 56.5279 24.8212C56.5853 24.8307 56.6475 24.8307 56.705 24.8212C56.8725 24.8165 57.0352 24.7691 57.1739 24.679L66.6444 18.1942C66.8789 18.0331 67.0177 17.7486 66.9985 17.4547ZM65.2805 17.1039L56.9442 22.8066L48.316 8.29163L56.7145 1.86372C61.9499 5.34788 64.7541 10.33 65.2805 17.1039Z" fill="#E2010B"/>
<path d="M28.4512 28.3527C28.1832 28.3574 27.92 28.3953 27.6616 28.4712C27.5563 27.8739 27.2644 27.3145 26.8337 26.8832C26.001 26.0299 24.7233 25.7455 23.6083 26.1532C23.4934 25.5748 23.2159 25.0487 22.7995 24.622C22.2923 24.1148 21.6271 23.8162 20.914 23.7593C20.938 23.6123 20.9475 23.4654 20.9475 23.3184C20.9428 21.6688 19.5885 20.313 17.9279 20.2988H17.904C17.1096 20.2988 16.3391 20.6212 15.7792 21.1805L12.1758 24.769C11.6063 25.3236 11.2809 26.0963 11.2809 26.8879C11.2713 27.6796 11.568 28.4285 12.1231 28.9974C12.6447 29.533 13.3338 29.8459 14.0756 29.8933C13.8411 31.4671 14.8939 32.9698 16.4827 33.2826C16.6789 33.3206 16.8799 33.3443 17.0857 33.3395C17.4398 33.3395 17.7891 33.2779 18.1193 33.1547C18.3873 34.5436 19.6172 35.5675 21.0528 35.5675H21.0815C21.3495 35.5628 21.6127 35.5248 21.8664 35.449C22.0004 36.1837 22.3975 36.8332 23.0005 37.293C23.5365 37.7007 24.1777 37.9187 24.8381 37.9187C24.9721 37.9187 25.1061 37.9092 25.2353 37.895C25.8957 37.8097 26.5178 37.5063 26.9868 37.037L30.6046 33.4817C31.1741 32.9224 31.4995 32.145 31.4948 31.3533C31.49 30.5522 31.1741 29.7938 30.6094 29.2249C30.04 28.6655 29.2551 28.3432 28.4512 28.3527ZM21.0098 33.8847C20.6652 33.8847 20.3254 33.7425 20.0814 33.496C19.5645 32.9745 19.5645 32.126 20.0814 31.6046L23.6944 28.0114C23.9385 27.7649 24.2735 27.6227 24.6228 27.6227H24.6419C25.0008 27.6227 25.3358 27.7601 25.5847 28.0114C26.0249 28.4522 26.1015 29.1491 25.7665 29.6705L22.699 32.7754C22.5938 32.8797 22.498 32.9935 22.4071 33.1167L22.0147 33.5102C21.7706 33.7567 21.4357 33.8942 21.0911 33.8989L21.0528 33.8847H21.0289C21.0241 33.8847 21.0193 33.8847 21.0098 33.8847ZM18.9089 24.2523L15.3294 27.8123C14.8078 28.3242 13.9512 28.3242 13.4248 27.8075C13.1711 27.5753 13.0132 27.2434 13.0036 26.9021C13.0036 26.5514 13.1472 26.21 13.4008 25.9683L17.0043 22.3751C17.2579 22.1191 17.5929 21.9817 17.9566 21.9817H17.9662C18.3155 21.9817 18.6553 22.1239 18.8994 22.3751C19.4162 22.8918 19.4258 23.7308 18.9089 24.2523ZM16.0281 29.3008L16.1286 29.3813L19.7368 25.7787C19.9904 25.5274 20.3254 25.39 20.6843 25.39C21.4165 25.352 22.0482 25.9256 22.0817 26.6604C22.1008 27.0633 21.9381 27.452 21.6271 27.7222L18.014 31.2727C17.4924 31.7894 16.6454 31.7894 16.1238 31.2727C15.6022 30.7608 15.5926 29.917 16.1142 29.3956L16.0281 29.3008ZM29.3604 32.2587L25.7522 35.8424C25.221 36.3544 24.3835 36.3544 23.8523 35.8424C23.4121 35.4063 23.3355 34.7142 23.6609 34.1928L26.781 31.1021C26.8863 30.9978 26.982 30.884 27.0682 30.7608L27.4606 30.3768C27.9774 29.8554 28.8197 29.8506 29.3461 30.3626L29.3604 30.3768C29.882 30.8888 29.8868 31.7326 29.3604 32.2587Z" fill="#E2010B"/>
<path d="M57.8438 16.208V16.189H57.7146C57.0925 16.1843 56.5038 16.4213 56.0588 16.8574C55.6137 17.2935 55.3697 17.8766 55.3649 18.4928C55.3553 19.7727 56.3986 20.8204 57.6859 20.8298H57.7002C58.9827 20.8298 60.026 19.7964 60.0355 18.5213C60.0308 17.2983 59.0593 16.2838 57.8438 16.208ZM57.7098 19.1565C57.5375 19.1565 57.3748 19.0949 57.2504 18.9764C57.126 18.8579 57.0542 18.6967 57.0542 18.526C57.0494 18.3554 57.1164 18.1895 57.236 18.0662C57.3557 17.943 57.5184 17.8719 57.6907 17.8671H57.705C58.0543 17.8671 58.3463 18.1468 58.351 18.4976V18.526C58.351 18.8294 58.1357 19.0854 57.8486 19.1518L57.7098 19.1565Z" fill="#E2010B"/>
</svg>
