<svg width="50" height="50" viewBox="0 0 50 50" fill="none" xmlns="http://www.w3.org/2000/svg">
<path d="M50 25C50 38.8071 38.8071 50 25 50C11.1929 50 0 38.8071 0 25C0 11.1929 11.1929 0 25 0C38.8071 0 50 11.1929 50 25Z" fill="#08AEF2"/>
<path d="M38 17.3663C37.0799 17.7679 36.0926 18.0402 35.0552 18.1618C36.1144 17.5371 36.9252 16.5463 37.3095 15.3692C36.3159 15.9477 35.2192 16.3678 34.0507 16.5955C33.1149 15.6124 31.7839 15 30.3076 15C27.4753 15 25.1789 17.2617 25.1789 20.0496C25.1789 20.445 25.2242 20.8312 25.3117 21.2005C21.05 20.9897 17.271 18.9788 14.7418 15.9231C14.2997 16.6678 14.0482 17.5355 14.0482 18.4618C14.0482 20.2142 14.9543 21.7605 16.329 22.6652C15.4886 22.6375 14.6981 22.4098 14.006 22.0313V22.0944C14.006 24.5407 15.7745 26.5824 18.1193 27.0471C17.6897 27.1609 17.2367 27.224 16.768 27.224C16.4369 27.224 16.1166 27.1917 15.8026 27.1301C16.4556 29.138 18.349 30.5981 20.5923 30.6381C18.838 31.9921 16.6259 32.7967 14.2232 32.7967C13.8092 32.7967 13.4015 32.7721 13 32.7275C15.2699 34.163 17.9647 35 20.861 35C30.2952 35 35.4521 27.304 35.4521 20.6297L35.4349 19.9758C36.4425 19.268 37.3142 18.3787 38 17.3663Z" fill="white"/>
</svg>
