<svg width="39" height="46" fill="none" xmlns="http://www.w3.org/2000/svg"><path d="M23.053 11.02a.353.353 0 01.244.169l.102.173a5.469 5.469 0 003.87 2.64c.092.015.339.022.385.025v-1.081c-.08-.016-.441-.057-.515-.072a4.446 4.446 0 01-2.83-2.069l-1-1.697c0-.003-.006-.006-.01-.006-.008 0-.011.003-.011.003l-.414.421c-2.193 2.232-5.111 3.464-8.215 3.464h-2.93v1.08h3.007a12.35 12.35 0 008.03-2.972.366.366 0 01.287-.079zm-12.084 8.62h-.102c.05.044.213.324.235.39a7.741 7.741 0 001.856 3.105l2.427 2.47-1.717 1.77-.238.072-6.025 2.043c-2.656.902-4.592 3.206-5.052 6.018l-1.34 8.445a.901.901 0 00.197.73.875.875 0 00.673.317h35.753c.225 0 .438-.1.584-.277a.79.79 0 00.17-.631l-1.362-8.584c-.46-2.81-2.397-5.116-5.053-6.018l-6.031-2.046-.25-.07-.01-.009-1.723-1.728 1.566-1.584a.139.139 0 01.021-.02l-1.476-.006-.308.324s-.281.315-.38.418l-.386.324a2.42 2.42 0 01-1.736.732H18.05a2.268 2.268 0 01-1.606-.675l-2.68-2.728c-1.004-1.022-1.773-2.534-1.992-3.932v.33a.81.81 0 01-.803.82zm8.193 24.279H8.366l.006-.047.568-6.038a.54.54 0 00-.476-.59.535.535 0 00-.58.483L7.3 43.922H2.714c-.154 0-.3-.07-.398-.189a.542.542 0 01-.118-.43l1.205-7.612c.395-2.414 2.056-4.394 4.342-5.17l5.966-2.024 1.004 4.079c.099.409.401.707.803.801a1.04 1.04 0 001.065-.367l2.579-3.15v14.06zm12.48-13.401c2.282.773 3.943 2.756 4.342 5.17l1.21 7.643a.5.5 0 01-.11.408.488.488 0 01-.378.18h-4.62l-.583-6.195a.535.535 0 00-.58-.484.537.537 0 00-.476.59l.57 6.086H20.225V29.86l2.58 3.149c.265.324.663.459 1.065.367.401-.094.704-.392.803-.801l1.003-4.082 5.967 2.023zm-15.426-4.18a3.471 3.471 0 001.908.572h3.21c.641 0 1.262-.186 1.796-.535l.028-.019 1.56 1.566-.92 3.743a.343.343 0 01-.337.267.342.342 0 01-.266-.126l-2.418-2.954a.455.455 0 00-.352-.17h-1.47a.455.455 0 00-.352.17l-2.418 2.954a.342.342 0 01-.602-.138l-.924-3.765 1.529-1.581.028.015z" fill="#010035" stroke="#010035" stroke-width=".3"/><path d="M22.494 41.231a.796.796 0 00-.787.802c0 .443.352.801.787.801a.794.794 0 00.788-.801.794.794 0 00-.788-.802zm0-3.4a.796.796 0 00-.787.802c0 .443.352.801.787.801a.794.794 0 00.788-.801.794.794 0 00-.788-.802zm0-3.398a.796.796 0 00-.787.802c0 .443.352.801.787.801a.794.794 0 00.788-.801.794.794 0 00-.788-.802zm6.031-14.749h-.102a.81.81 0 01-.803-.817V18.6c-.216 1.354-.976 2.781-1.949 3.771l-.732.72c-.012.012-.024.025-.04.034.417.026-.352.267.426.076 0 0 .528.012.54-.025 0 0 .523-.101.526-.104.006-.053.695-.713.787-.84a7.629 7.629 0 001.1-2.2 1.76 1.76 0 01.247-.348z" fill="#010035" stroke="#010035" stroke-width=".3"/><path d="M19.563 24.06h6.955c1.94 0 3.518-1.597 3.518-3.562v-.336c0-.198.157-.358.352-.358h.333c1.94 0 3.518-1.597 3.518-3.561v-2.464c0-1.964-1.578-3.561-3.518-3.561h-.472a.352.352 0 01-.35-.305 10.52 10.52 0 00-3.461-6.352A10.216 10.216 0 0019.693 1c-2.47 0-4.867.908-6.745 2.561a10.52 10.52 0 00-3.462 6.352.354.354 0 01-.348.305h-.473c-1.94 0-3.518 1.597-3.518 3.56v2.465c0 1.964 1.579 3.56 3.518 3.56h2.434a.723.723 0 00.716-.725V11.12a.901.901 0 00-.88-.902.356.356 0 01-.361-.421 9.433 9.433 0 013.162-5.513 9.188 9.188 0 015.957-2.212c2.171 0 4.287.785 5.957 2.212a9.433 9.433 0 013.163 5.513.354.354 0 01-.355.418.902.902 0 00-.884.902v7.958c0 .399.321.726.717.726h.33c.195 0 .352.16.352.358v.522c0 .908-.534 1.731-1.365 2.096-.03.012-.058.016-.086.022-.016 0-.031 0-.046.01-1.047.31-2.536.172-2.548.172h-5.346a.545.545 0 00-.547.465.538.538 0 00.127.425c.105.119.25.188.401.188zm11.875-12.18c0-.125.065-.241.17-.307a.343.343 0 01.342-.013 2.289 2.289 0 011.226 2.03v2.838c0 .855-.469 1.631-1.226 2.03a.359.359 0 01-.16.041.368.368 0 01-.182-.053.353.353 0 01-.17-.308v-6.257zm-23.49 6.261a.364.364 0 01-.17.308.342.342 0 01-.342.013 2.288 2.288 0 01-1.226-2.03v-2.835c0-.855.47-1.632 1.226-2.03a.353.353 0 01.516.32v6.254h-.003zm2.802-6.49v6.72a.355.355 0 01-.352.358H9.363a.355.355 0 01-.352-.358v-6.72c0-.198.157-.358.352-.358h1.035c.194 0 .352.16.352.358zm17.884 6.72v-6.72c0-.198.157-.358.355-.358h1.034c.195 0 .352.16.352.358v6.72a.355.355 0 01-.352.358H28.99a.356.356 0 01-.355-.358z" fill="#E2010B" stroke="#E2010B" stroke-width=".3"/></svg>