<svg width="10" height="6" fill="none" xmlns="http://www.w3.org/2000/svg"><path d="M1 1.21a.16.16 0 01.021-.08.23.23 0 01.346-.077c.029.018.049.041.073.064l3.492 3.305c.037.035.09.04.127.006l.01-.01C6.236 3.314 7.403 2.21 8.573 1.106a.403.403 0 01.166-.1c.093-.023.173.02.226.096a.198.198 0 01-.012.24.504.504 0 01-.065.065 3084.082 3084.082 0 01-3.682 3.488c-.149.142-.258.138-.407 0C3.572 3.734 2.34 2.573 1.113 1.407a.698.698 0 01-.076-.09A.18.18 0 011 1.21z" fill="#010035" stroke="#010035"/></svg>