<svg width="21" height="20" fill="none" xmlns="http://www.w3.org/2000/svg"><path d="M10.034 19.083c5.03 0 9.111-4.064 9.111-9.083S15.063.917 10.034.917C5.004.917.922 4.98.922 10s4.082 9.083 9.112 9.083z" stroke="#29873D" stroke-width="1.5"/><path fill-rule="evenodd" clip-rule="evenodd" d="M8.58 13.183c.183.2.472.2.655 0l5.192-5.63a.57.57 0 00.026-.743.595.595 0 00-.367-.143.417.417 0 00-.315.143l-4.85 5.287L6.666 9.64c-.105-.114-.21-.171-.341-.171a.417.417 0 00-.315.143.524.524 0 00-.157.371c0 .143.052.257.131.372l2.596 2.83z" fill="#29873D" stroke="#29873D" stroke-width=".2"/></svg>