<svg width="49" height="40" fill="none" xmlns="http://www.w3.org/2000/svg"><path d="M48.786 5.272l.004-.338c.007-.453.014-.924-.087-1.42-.428-2.115-2.22-3.44-4.456-3.44C37.65.067 9.828.053 4.508.074 3.216.08 2.118.44 1.242 1.329.122 2.465 0 3.874 0 4.836.004 6.625.004 27.24 0 29.028c0 .96.126 2.368 1.242 3.504.876.893 1.974 1.154 3.27 1.161l13.131.06c.004.749.151 2.014.151 2.722l-.003.635c0 .031.014.059.017.09-.003.025-.014.046-.014.07 0 .61-.833 1.489-1.502 1.489h-2.264c-.452 0-.434-.018-.434.429 0 .446-.018.718.434.718L30.895 40l4-.094c.451 0 .434-.269.434-.718 0-.45-.297-.346-.749-.346H32.2c-.669 0-1.187-.962-1.187-1.572 0-.052-.02-.098-.031-.146.007-.05.028-.094.028-.143a309.39 309.39 0 01-.007-3.288H44.24c2.236-.003 4.029-1.234 4.452-3.343.102-.499.094-.97.087-1.423l-.003-.334c.014-1.59.014-21.728.01-23.321z" fill="#fff"/><path d="M48.703 3.424C48.29 1.384 46.56.011 44.4.011c-6.964-.007-34.68-.02-40.046 0-1.25.007-2.31.446-3.153 1.304C.126 2.406.004 3.78.004 4.718c.003 1.823.003 22.56 0 24.383 0 .935.122 2.305 1.197 3.4.843.86 1.904 1.3 3.157 1.304l13.286.045v.188c.003.886 0 2.193-.004 2.57l-.003.63s.007.168.003.182c-.007.715-.64 1.294-1.414 1.294h-2.282a.631.631 0 00-.633.627c0 .345.283.628.633.628h2.093c.018 0 .032 0 .042.003.01-.003.025-.003.042-.003h18.855c.35 0 .633-.283.633-.628a.631.631 0 00-.633-.627h-2.398c-.78 0-1.414-.586-1.414-1.304l-.003-.293c-.007-.551-.01-2.1-.007-3.124v-.188h13.244c2.16-.004 3.888-1.374 4.298-3.41.098-.474.09-.93.084-1.37l-.004-.36c.004-1.516.004-21.772.004-23.508l.003-.366c.01-.44.014-.896-.08-1.367zM18.547 38.717l.126-.272c.154-.331.234-.676.234-1.028 0 0-.007-.168-.003-.182v-.62c0-.39.003-1.726.003-2.619v-.191H29.89v.191c-.003 1.06.004 2.612.007 3.142l.004.272c0 .359.077.707.23 1.035l.127.272H18.547zm28.913-8.57c-.294 1.458-1.494 2.403-3.059 2.406h-30.32a.299.299 0 00-.063.014c-.018.004-.035.01-.05.014l-.02.007h-.025l-9.565-.032c-.91-.003-1.649-.303-2.254-.923-.588-.6-.84-1.357-.837-2.521v-2.203h46.246l.003 2.123c.01.37.018.76-.056 1.115zm.06-25.353l-.004.366c.004 1.256.004 14.159 0 20.298v.192H1.271v-.192c.003-6.498 0-19.307-.004-20.744-.003-1.168.249-1.92.84-2.524.606-.617 1.344-.92 2.254-.924 5.02-.02 29.677-.007 40.044 0 1.56 0 2.761.945 3.059 2.406.07.359.063.746.056 1.122z" fill="#010035"/><path d="M26.89 3.884c-3.909 0-7.087 3.152-7.087 7.022s3.182 7.025 7.088 7.025 7.087-3.152 7.087-7.025c0-3.874-3.178-7.022-7.087-7.022zm6.073 7.025c-.003 3.312-2.726 6.01-6.072 6.014-3.346 0-6.073-2.698-6.073-6.014 0-3.315 2.723-6.014 6.073-6.014 3.35 0 6.072 2.699 6.072 6.014z" fill="#E2010B"/><path d="M28.511 8.403l.021.007a.511.511 0 00.658-.29.51.51 0 00-.294-.655c-1.91-.732-4.067.216-4.805 2.11a3.866 3.866 0 00-.091.26h-.616a.507.507 0 00-.508.506c0 .28.228.506.508.506h.458a3.4 3.4 0 00.018.422h-.476a.507.507 0 00-.508.505c0 .28.228.506.508.506h.724a3.726 3.726 0 003.455 2.311 3.72 3.72 0 001.32-.24l.01-.004a.509.509 0 00.294-.655.511.511 0 00-.658-.29 2.717 2.717 0 01-3.294-1.122h2.583a.507.507 0 100-1.011h-2.94a2.572 2.572 0 01-.024-.366v-.06h3.272c.28 0 .508-.226.508-.505a.507.507 0 00-.508-.506h-3.048c.57-1.286 2.079-1.931 3.433-1.43zm-18.13 8.684a.545.545 0 00.231-.052l7.606-3.681a.523.523 0 00.245-.705.532.532 0 00-.71-.24l-7.606 3.681a.524.524 0 00.234.997zm9.047-2.053a.515.515 0 00-.024-.401.536.536 0 00-.71-.244L7.216 19.772a.523.523 0 00-.245.704.532.532 0 00.71.244l11.477-5.383a.523.523 0 00.27-.303zm-5.677-1.792a.545.545 0 00.231-.052l2.74-1.329a.523.523 0 00.246-.704.532.532 0 00-.71-.24l-2.741 1.328a.524.524 0 00.234.997zm4.011-2.109a.533.533 0 00.675-.328.515.515 0 00-.024-.401.533.533 0 00-.98.06.524.524 0 00.329.67zm2.534 5.577a.531.531 0 00-.024-.4.532.532 0 00-.71-.24l-7.606 3.681a.523.523 0 00-.245.704.532.532 0 00.71.244l7.606-3.681a.567.567 0 00.27-.307zm-.227 1.427l-2.74 1.328a.524.524 0 00-.246.704.532.532 0 00.71.244l2.741-1.328a.523.523 0 00.245-.704.536.536 0 00-.71-.244zm1.652-.677a.533.533 0 00-.675.328.515.515 0 00.024.401.536.536 0 00.476.296c.22 0 .427-.136.504-.355a.515.515 0 00-.024-.401.504.504 0 00-.305-.269z" fill="#E2010B"/></svg>