<svg width="35" height="42" fill="none" xmlns="http://www.w3.org/2000/svg"><path d="M25.56 16.102a.928.928 0 00-.561-.854.9.9 0 00-.997.204l-7.391 7.499-3.844-3.9a.91.91 0 00-.645-.27.9.9 0 00-.645.27.924.924 0 00-.197 1.003.924.924 0 00.197.299l4.488 4.553s0 0 0 0a.907.907 0 00.646.274c.12 0 .239-.024.35-.071l-.059-.138.059.138a.903.903 0 00.295-.203l8.035-8.152s0 0 0 0a.913.913 0 00.27-.652z" fill="#010035" stroke="#010035" stroke-width=".3"/><path d="M17.85.919h0l15.736 6.63s0 0 0 0a.9.9 0 01.415.341c.1.153.152.333.149.517v8.055A26.77 26.77 0 0129.7 31.29a26.247 26.247 0 01-11.855 9.793h-.002a.925.925 0 01-.689 0h-.001A26.279 26.279 0 015.3 31.294 26.852 26.852 0 01.85 16.462s0 0 0 0V8.406v0H1a.78.78 0 01.128-.432.763.763 0 01.345-.286L17.85.918zm0 0a.89.89 0 00-.348-.069l.347.069zM1.415 7.549v.001L17.5 1a.72.72 0 00-.29.057L17.153.92h0s0 0 0 0L1.416 7.55zM17.78 39.105h-.001l-.276.127-.275-.126h-.002a24.492 24.492 0 01-10.586-9.13 25.015 25.015 0 01-3.96-13.515s0 0 0 0V9.019l14.825-6.242L32.33 9.019v7.443c0 9.807-5.707 18.69-14.548 22.642z" fill="#E2010B" stroke="#E2010B" stroke-width=".3"/></svg>