<svg width="42" height="42" fill="none" xmlns="http://www.w3.org/2000/svg"><path d="M26.217 7.873H15.783a.47.47 0 100 .937h10.434a.47.47 0 00.47-.469.472.472 0 00-.47-.468zm0 4.283H15.783a.47.47 0 00-.47.465c0 .258.209.47.47.47h10.434a.47.47 0 00.47-.47.471.471 0 00-.47-.465z" fill="#010035" stroke="#010035" stroke-width=".3"/><path d="M29.289 8.064h5.785v7.63h.978l-.003-8.139a.624.624 0 00-.014-.071l-.006-.023-.011-.072a.625.625 0 00-.072-.105l-6.333-6.181a.475.475 0 00-.123-.077l-.08-.009A.489.489 0 0029.32 1H9.774A2.64 2.64 0 007.18 3.598v7.358h.94V3.569a1.681 1.681 0 011.65-1.657h19.05v5.695a.461.461 0 00.468.457zm.47-5.504l4.644 4.57h-4.644V2.56z" fill="#010035" stroke="#010035" stroke-width=".3"/><path d="M35.983 27.1c-.003-.56-.126-.948-.37-1.15a.773.773 0 00-.45-.167l-.427-.037c-.672-.06-1.687-.148-1.89-.206l-.035-.005c-.043-.003-.281-.095-.473-.166l-.017-.006c-.09-.034-.187-.068-.287-.105-.18-.063-.387-.138-.608-.215-1.6-.568-4.277-1.517-5.722-1.677-1.91-.249-3.936-.289-5.416-.109-1.333.14-2.156.395-6.826 2.883-5.536.392-6.83 1.258-7.254 1.544l-.008.005c-.746.512-.597 2.82-.442 3.364.023.114.014.137-.011.203-.006.01-.009.025-.015.04a.731.731 0 00-.117.614c.12.557.846.706 1.259.706H9.36a2.738 2.738 0 002.12 1.031c.814 0 1.568-.363 2.09-.997h14.24a2.7 2.7 0 002.092.997 2.77 2.77 0 002.16-1.083c1.063-.063 3.467-.228 3.728-.437.51-.403.987-2.077.192-5.026zm-15.6-2.883c.152-.014.313-.028.48-.04v1.858c0 .026 0 .051.002.077-1.91.014-3.995.026-5.332.031 3.11-1.603 3.815-1.806 4.85-1.926l-.011-.077.011.077zm9.52 8.467a1.758 1.758 0 01-1.753-1.76c0-.971.786-1.76 1.753-1.76.966 0 1.752.774 1.752 1.76a1.761 1.761 0 01-1.752 1.76zm-18.428 0a1.758 1.758 0 01-1.753-1.76c0-.971.786-1.76 1.753-1.76.966 0 1.75.774 1.75 1.76a1.753 1.753 0 01-1.75 1.76zm14.197-5.703c.11-.009.232-.02.376-.02 1.97-.106 3.795-.972 4.139-1.318l.008-.008c.488.171.938.331 1.27.451l.23.083c.453.18.7.26.835.303l.069.023c.292.08 1.288.157 1.947.208l.43.035c.01.08.01.223.01.417v.103l.005.04c.668 2.509.336 3.795.19 4.046-.253.037-1.34.131-2.64.22a2.72 2.72 0 00-2.636-3.363 2.722 2.722 0 00-2.604 3.486h-13.22a2.72 2.72 0 00-2.604-3.486 2.722 2.722 0 00-2.613 3.452H6.871c-.077 0-.164-.012-.238-.026.08-.18.132-.431.009-.803-.147-.591-.08-2.143.097-2.326.978-.672 3.144-1.123 6.614-1.377.112 0 11.215-.017 12.092-.126.067 0 .141-.009.227-.014l-.009-.078.01.078zm-3.85-.875c0-.023.004-.046.004-.068v-1.9a28.233 28.233 0 013.74.188c.714.083 1.818.369 3.376.88-.898.334-2.42.797-2.934.826-.15 0-.279.011-.396.023-.08.008-.152.014-.215.014-.227.009-1.429.02-3.574.037z" fill="#E2010B"/><path d="M34.891 28.324a6.965 6.965 0 00-.906-.623c.08-.006.172-.006.26-.006a.423.423 0 000-.846c-.533 0-.92.103-1.147.306a.652.652 0 00-.195.474c0 .409.178.575.505.74h.003c.192.078.49.277.938.629l.014.009c.075.037.155.077.241.077a.385.385 0 00.333-.163.395.395 0 00.106-.306.417.417 0 00-.152-.291zm-26.66-.017a.338.338 0 00-.258-.054.46.46 0 00-.301.225.396.396 0 00.031.409c-.177.029-.375.057-.565.083l-.02.003a.456.456 0 00-.372.457c0 .229.223.386.427.389.485-.035 1.609-.172 1.62-.698.07-.428-.32-.694-.562-.814zm13.733-.403h-1.239c-.252 0-.422.171-.422.423 0 .251.17.423.422.423h1.239a.401.401 0 00.422-.423c0-.252-.17-.423-.422-.423z" fill="#E2010B"/><path d="M1 13.659v24.635A2.716 2.716 0 003.72 41h34.56A2.717 2.717 0 0041 38.294V18.322a2.716 2.716 0 00-2.72-2.706H12.155V13.66a2.723 2.723 0 00-2.719-2.706h-5.72A2.719 2.719 0 001 13.659zm1.018 0a1.706 1.706 0 011.698-1.695h5.72a1.707 1.707 0 011.7 1.695v2.466c0 .28.23.506.51.506h26.635a1.706 1.706 0 011.7 1.691l-.016 19.972a1.708 1.708 0 01-1.678 1.694H3.719a1.707 1.707 0 01-1.7-1.694V13.659z" fill="#010035" stroke="#010035" stroke-width=".3"/></svg>