<svg width="51" height="50" fill="none" xmlns="http://www.w3.org/2000/svg"><rect width="50.556" height="50" rx="25" fill="#F00075"/><path d="M31.72 10H18.28C13.714 10 10 13.714 10 18.279V31.72c0 4.566 3.714 8.28 8.279 8.28H31.72c4.566 0 8.28-3.714 8.28-8.28V18.279C40 13.714 36.286 10 31.72 10zm5.618 21.721a5.624 5.624 0 01-5.617 5.617H18.279a5.623 5.623 0 01-5.617-5.617V18.279a5.624 5.624 0 015.617-5.617H31.72a5.624 5.624 0 015.617 5.617V31.72z" fill="#fff"/><path d="M25 17.27c-4.262 0-7.73 3.468-7.73 7.73 0 4.263 3.468 7.73 7.73 7.73 4.262 0 7.73-3.467 7.73-7.73 0-4.262-3.467-7.73-7.73-7.73zm0 12.798A5.074 5.074 0 0119.931 25 5.074 5.074 0 0125 19.932 5.074 5.074 0 0130.068 25 5.074 5.074 0 0125 30.068zm8.054-15.055a1.96 1.96 0 00-1.378.571 1.962 1.962 0 00-.573 1.38c0 .514.209 1.017.573 1.381.362.362.866.572 1.378.572a1.97 1.97 0 001.381-.572c.364-.364.571-.867.571-1.38a1.96 1.96 0 00-.571-1.38 1.96 1.96 0 00-1.38-.572z" fill="#fff"/></svg>