<svg width="68" height="35" fill="none" xmlns="http://www.w3.org/2000/svg"><path d="M12.944 4.06H3.127a.776.776 0 00-.767.782c0 .434.345.784.767.784h9.817c.423 0 .768-.35.768-.784a.773.773 0 00-.768-.783zm6.754-2.43H6.053a.776.776 0 00-.767.784c0 .433.345.783.767.783h13.645c.422 0 .767-.35.767-.783a.77.77 0 00-.767-.784zM5.689 6.492H2.517c-.38 0-.69.35-.69.783 0 .434.31.784.69.784h3.172a.64.64 0 00.486-.232.834.834 0 00.204-.556c0-.424-.311-.779-.69-.779zm-4.893 0a.764.764 0 00-.544.232.793.793 0 000 1.108c.146.148.34.232.544.232a.764.764 0 00.544-.232.793.793 0 000-1.108.764.764 0 00-.544-.232z" fill="#E2010B"/><path d="M63.691 11.768l-.116-.02-1.715-5.733.17-.04a.829.829 0 00.641-.808V4.08c0-2.252-1.797-4.08-4.001-4.08h-8.224c-.301 0-.588.118-.801.34a1.13 1.13 0 00-.326.818l.058 13.69v3.354H.772A.78.78 0 000 18.99v7.606c0 1.06.845 1.916 1.88 1.916h14.626v.247c0 3.443 2.744 6.241 6.12 6.241s6.12-2.798 6.12-6.241v-.247h22.768v.247c0 3.443 2.744 6.241 6.12 6.241s6.12-2.798 6.12-6.241v-.247h3.43a.827.827 0 00.816-.827V16.872c-.02-2.586-1.831-4.734-4.309-5.104zm-6.062 12.42c2.473 0 4.484 2.049 4.484 4.566s-2.011 4.566-4.484 4.566c-2.472 0-4.483-2.05-4.483-4.566 0-2.518 2.016-4.567 4.483-4.567zm6.111-5.168v-1.33h2.613v2.665h-1.306c-.72 0-1.307-.601-1.307-1.335zm-.816-2.99a.827.827 0 00-.816.827v2.163c0 1.65 1.316 2.99 2.934 2.99h1.306v4.827h-2.91l-.043-.123c-.855-2.512-3.182-4.202-5.785-4.202-2.604 0-4.93 1.69-5.785 4.202l-.044.123h-.787V13.364H62.89c1.491 0 2.803.976 3.26 2.43l.072.236h-3.298zm-11.906-4.326V5.98h9.147l1.705 5.724H51.018zm0-7.394V1.66h7.67c1.302 0 2.36 1.079 2.36 2.404v.246h-10.03zM22.631 24.187c2.473 0 4.483 2.05 4.483 4.567 0 2.517-2.01 4.566-4.483 4.566-2.472 0-4.483-2.05-4.483-4.566 0-2.518 2.015-4.567 4.483-4.567zm26.745-4.325v6.975h-20.93l-.044-.123c-.855-2.512-3.182-4.202-5.786-4.202-2.603 0-4.93 1.69-5.785 4.202l-.043.123H1.875a.241.241 0 01-.238-.246v-6.729h47.74z" fill="#010035"/><path d="M8.579 15.522c.14.137 1.763.35 4.954.536a3.483 3.483 0 002.784 1.39c1.136 0 1.666-.503 2.297-1.286H38.4c.631.778 1.37 1.286 2.458 1.286a3.511 3.511 0 002.74-1.33h3.395c.422 0 1.37-.138 1.51-.779.093-.32-.048-.551-.14-.69-.049-.137-.093-.182-.049-.413.19-.64.379-3.577-.52-4.173-.568-.364-2.22-1.468-9.627-1.97-6.135-3.163-7.267-3.532-9.06-3.714-1.933-.232-4.624-.183-7.174.138-2.171.231-6.373 1.744-8.399 2.428-.52.183-.99.365-1.083.365-.33.093-2.074.231-3.114.32-.14 0-.33.044-.52.182-.281.232-.422.69-.422 1.375-1.044 3.724-.476 5.832.185 6.335z" fill="#fff"/><path d="M48.846 14.754l-.014-.044c-.03-.074-.034-.094-.015-.202.195-.705.457-3.985-.64-4.749l-.01-.01c-.584-.394-2.347-1.596-9.852-2.138-6.32-3.418-7.441-3.768-9.258-3.965-2.016-.251-4.77-.197-7.354.148-1.977.216-5.61 1.527-7.777 2.31l-.039.015c-.287.103-.549.197-.787.28-.131.05-.257.094-.374.143l-.034.015c-.233.089-.554.212-.607.222l-.068.01c-.267.074-1.632.197-2.54.28l-.56.05c-.135 0-.402.04-.694.26-.345.296-.524.848-.53 1.646-.47 1.788-.66 3.419-.553 4.72.097 1.113.398 1.92.85 2.285.277.222 1.982.429 5.062.62.719.937 1.821 1.493 2.972 1.493 1.152 0 2.152-.497 2.876-1.37h19.197a3.73 3.73 0 002.875 1.37c1.108 0 2.2-.527 2.92-1.418h3.322c.588 0 1.623-.222 1.798-1.04a1.124 1.124 0 00-.166-.93zM28.362 7.577s0-.005 0 0V5.133c.19.015.37.03.54.05 1.345.157 2.273.418 6.144 2.438-1.768-.015-4.303-.03-6.684-.044zm12.61 4.404c1.254 0 2.269 1.04 2.269 2.315 0 1.276-1.02 2.315-2.269 2.315-1.248 0-2.268-1.04-2.268-2.315-.005-1.3.996-2.315 2.268-2.315zm-24.953 0c1.254 0 2.269 1.04 2.269 2.315 0 1.276-1.02 2.315-2.268 2.315-1.249 0-2.269-1.04-2.269-2.315 0-1.276.996-2.315 2.269-2.315zm31.41 2.133c-.127.384-.137.734-.03 1.059-.068.01-.131.015-.185.015h-2.57a3.95 3.95 0 00.108-.897c0-2.123-1.696-3.847-3.775-3.847-2.079 0-3.774 1.724-3.774 3.847 0 .32.039.636.117.946H19.687c.078-.31.116-.626.116-.946 0-2.123-1.695-3.847-3.774-3.847-2.079 0-3.774 1.724-3.774 3.847 0 .256.024.512.078.764-1.623-.114-2.983-.232-3.381-.286-.228-.468-.52-2.345.291-5.438l.01-.222c0-.202 0-.365.005-.478.117-.01.272-.025.447-.034l.053-.005c1.186-.094 2.278-.188 2.667-.296l.083-.025c.18-.059.52-.167 1.127-.413l.35-.128c.46-.168 1.024-.375 1.631-.592.603.562 3.05 1.665 5.654 1.808.18 0 .35.015.5.03.113.01.205.02.297.02 1.22.147 15.967.172 16.365.172 4.673.35 7.587.96 8.904 1.867.16.256.3 2.222.092 3.079zM26.856 7.562c-2.837-.02-4.43-.04-4.741-.054-.068 0-.156-.01-.277-.02a5.498 5.498 0 00-.52-.03h-.005c-.631-.034-2.453-.58-3.672-1.024 1.953-.64 3.347-1.005 4.265-1.113a37.58 37.58 0 014.95-.256v2.497z" fill="#E2010B"/><path d="M11.294 9.064c-.257-.232-.7-.35-1.311-.35a.48.48 0 00-.477.488c0 .3.248.487.477.487.111 0 .233 0 .335.01-.229.133-.588.35-1.069.744a.469.469 0 00-.17.335.456.456 0 00.121.35.432.432 0 00.38.187.604.604 0 00.271-.089l.02-.01c.515-.413.86-.645 1.088-.739.36-.182.568-.384.568-.852a.784.784 0 00-.233-.561zm35.489 2.557c-.262-.04-.53-.079-.777-.118a.532.532 0 00.043-.557.589.589 0 00-.383-.286.396.396 0 00-.326.07c-.534.275-.796.655-.733 1.068.005.237.233.784 2.118.922.257 0 .539-.207.539-.503a.591.591 0 00-.481-.596zm-18.332-1.468h-1.68c-.336 0-.559.231-.559.571 0 .34.223.572.559.572h1.68c.335 0 .559-.232.559-.572 0-.34-.224-.571-.559-.571z" fill="#E2010B"/></svg>