<svg width="18" height="18" fill="none" xmlns="http://www.w3.org/2000/svg"><path d="M16.601 13.11L14.5 10.969c-.015-.015-.378-.374-.91-.374-.282 0-.555.099-.811.294-.639.485-1.874 1.818-2.281 2.263-.722-.323-3.621-1.813-5.601-5.63l2.128-2.186c.266-.256.62-.983.057-1.9-.602-.976-2.16-2.07-2.313-2.176A1.263 1.263 0 004.003 1a1.41 1.41 0 00-.78.249c-.8.528-2.171 2.017-2.223 4.245a.28.28 0 00.015.096c.027.079 2.782 7.918 11.2 11.39.034.013.07.02.105.02h.01c.106-.004 2.393-.115 4.022-1.737.003-.003.007-.004.01-.006l.004-.007c.15-.15.296-.31.433-.487a1.329 1.329 0 00-.198-1.652zm-.249 1.33c-.062.082-.128.156-.194.23l-1.416-1.396a.273.273 0 00-.389.004.277.277 0 00.004.39l1.412 1.392c-1.324 1.168-3.068 1.358-3.403 1.384C4.56 13.195 1.786 6.091 1.551 5.456c.066-1.97 1.268-3.28 1.974-3.745a.871.871 0 01.478-.158.728.728 0 01.446.155c.016.011 1.607 1.112 2.165 2.018.456.743.073 1.167.025 1.216l-.058.06-1.419-1.4a.274.274 0 00-.388.005.277.277 0 00.003.39l1.42 1.399-1.832 1.88a.277.277 0 00-.049.318c2.359 4.7 6.006 6.09 6.16 6.146.105.039.223.01.298-.074.016-.018 1.622-1.795 2.336-2.338a.794.794 0 01.48-.182.83.83 0 01.52.21l2.097 2.14a.77.77 0 01.145.945z" fill="#fff" stroke="#fff" stroke-width=".3"/></svg>