<svg width="50" height="51" fill="none" xmlns="http://www.w3.org/2000/svg"><path d="M25 0C11.193 0 0 11.193 0 25c0 10.597 6.584 19.65 15.885 23.292-.227-1.975-.412-5.02.082-7.18.453-1.956 2.922-12.429 2.922-12.429s-.74-1.502-.74-3.704c0-3.477 2.016-6.07 4.526-6.07 2.14 0 3.169 1.605 3.169 3.519 0 2.14-1.358 5.35-2.079 8.333-.596 2.49 1.256 4.527 3.704 4.527 4.445 0 7.86-4.691 7.86-11.44 0-5.988-4.3-10.165-10.453-10.165-7.119 0-11.296 5.33-11.296 10.844 0 2.14.823 4.444 1.852 5.7a.744.744 0 01.165.72c-.185.781-.618 2.49-.7 2.839-.103.453-.37.556-.844.33-3.127-1.462-5.082-6.009-5.082-9.692 0-7.88 5.72-15.124 16.523-15.124 8.662 0 15.411 6.173 15.411 14.445 0 8.621-5.432 15.555-12.963 15.555-2.53 0-4.917-1.316-5.72-2.88l-1.564 5.946c-.555 2.181-2.078 4.897-3.107 6.564a25.11 25.11 0 007.408 1.111c13.806 0 25-11.193 25-25C50 11.193 38.807 0 25 0z" fill="#E60023"/></svg>