<svg width="68" height="35" fill="none" xmlns="http://www.w3.org/2000/svg"><path d="M26.36 3.09L17.211.044a.825.825 0 00-.53 0L7.54 3.085a.84.84 0 00-.573.791v7.611c0 8.407 9.643 11.424 9.74 11.453.078.025.16.034.238.034a.82.82 0 00.243-.034c.098-.029 9.74-3.046 9.74-11.453V3.886a.83.83 0 00-.568-.796zm-1.104 1.397v7.01c0 2.75-1.229 5.157-3.658 7.15-1.909 1.567-4.012 2.392-4.649 2.62-.636-.228-2.74-1.053-4.649-2.62-2.429-1.993-3.658-4.4-3.658-7.15v-7.01l8.307-2.765 8.307 2.765z" fill="#E2010B"/><path d="M15.593 14.369a.847.847 0 001.185 0l5.335-5.326a.83.83 0 000-1.184.831.831 0 00-1.186 0l-4.741 4.735-2.458-2.455a.847.847 0 00-1.185 0 .84.84 0 000 1.184l3.05 3.046z" fill="#E2010B"/><path d="M66.399 21.091c0-1.11-.233-1.848-.7-2.217a1.485 1.485 0 00-.855-.296c-1.71-.145-4.58-.368-5.125-.519-.155 0-.933-.296-1.788-.591-3.342-1.111-10.255-3.551-13.825-3.92-4.193-.52-8.623-.592-11.805-.223-2.954.296-4.815.888-14.915 5.99-12.193.816-14.914 2.591-15.846 3.178-1.477.96-1.166 5.695-.855 6.729.077.368 0 .441-.078.664-.155.223-.389.592-.233 1.111.233 1.033 1.788 1.256 2.487 1.256h5.592a5.775 5.775 0 004.508 2.145c1.826 0 3.007-.815 4.047-2.072H49.57c1.044 1.257 1.987 2.072 3.784 2.072 1.798 0 3.551-.888 4.586-2.242 5.256-.296 7.924-.64 8.157-.863 1.078-.81 2.006-4.216.3-10.202z" fill="#fff"/><path d="M2.497 32.715h5.718l.02.024A5.738 5.738 0 0012.766 35c1.758 0 3.371-.796 4.469-2.183l.02-.024h32.091l.02.024C50.465 34.204 52.092 35 53.837 35c1.743 0 3.526-.883 4.61-2.362l.019-.025h.029c5.363-.315 8.035-.689 8.249-.902 1.078-.844 2.04-4.42.296-10.818v-.02c0-1.154-.233-1.935-.685-2.313-.35-.262-.665-.3-.826-.3l-.952-.083c-1.69-.15-3.789-.335-4.27-.466-.131-.005-.49-.14-1.156-.388-.214-.078-.437-.165-.67-.247l-1.356-.476c-3.551-1.251-9.492-3.352-12.684-3.701-4.232-.548-8.71-.636-11.99-.238-2.924.306-4.741.869-15.142 6.38l-.024.009c-12.296.858-15.128 2.746-16.06 3.366l-.02.015c-1.472 1.004-1.157 6.01-.84 7.102.067.35.023.47-.04.64-.014.034-.024.068-.039.112l-.01.014c-.126.19-.383.578-.228 1.126.204 1.018 1.638 1.29 2.449 1.29zm10.265.84a4.252 4.252 0 01-4.25-4.245 4.255 4.255 0 014.25-4.245 4.23 4.23 0 014.25 4.245c.005 2.343-1.904 4.244-4.25 4.244zm41.074 0a4.252 4.252 0 01-4.25-4.245 4.255 4.255 0 014.25-4.245 4.23 4.23 0 014.251 4.245 4.23 4.23 0 01-4.25 4.244zM35.444 18.9a1.97 1.97 0 00.044-.422v-4.289c0-.063-.005-.126-.01-.189l-.005-.068h.068c2.725-.063 5.8.083 8.667.412 1.724.195 4.45.922 8.331 2.213l.17.058-.165.068c-1.637.679-5.995 2.066-7.394 2.134-.316 0-.597.024-.85.049-.19.014-.355.034-.495.034-.51.024-3.304.053-8.298.092h-.083l.02-.093zm-14.832.043c7.856-4.07 9.522-4.56 11.97-4.841.428-.044.894-.083 1.39-.112l.073-.005-.005.073c0 .039-.005.083-.005.126v4.289c0 .15.015.296.044.431l.02.078h-.083c-5.004.034-10.528.063-13.374.078h-.277l.247-.117zM1.642 29.174c-.32-1.286-.243-5.02.335-5.516C4.202 22.125 9.1 21.102 16.94 20.53c.257 0 25.184-.038 26.928-.276.14 0 .306-.015.49-.034.253-.024.54-.049.86-.049 4.3-.228 8.254-2.08 8.997-2.818a.67.67 0 00.107-.14l.03-.044.048.02c1.141.397 2.205.775 3.06 1.08l.496.175a23.603 23.603 0 001.972.709c.622.17 2.818.34 4.27.45.54.045.967.074 1.166.098l.034.005.015.034c.087.17.087.475.087 1.212v.229c1.482 5.535.826 8.746.302 9.357l-.015.015-.02.005c-.315.077-3.327.33-6.441.543l-.097.005.029-.093a5.645 5.645 0 00.267-1.702c0-3.139-2.555-5.69-5.698-5.69-3.144 0-5.699 2.551-5.699 5.69 0 .67.117 1.324.35 1.95l.034.087H18.076l.034-.087a5.56 5.56 0 00.35-1.95c0-3.139-2.555-5.69-5.698-5.69-3.143 0-5.699 2.551-5.699 5.69 0 .635.107 1.266.321 1.872l.03.088H2.491a3.46 3.46 0 01-.967-.16l-.077-.025.043-.073c.243-.407.452-.94.15-1.838z" fill="#010035"/><path d="M63.862 20.15c-1.137 0-1.943.21-2.404.617a1.226 1.226 0 00-.374.897c0 .8.335 1.111.99 1.441.448.18 1.133.63 2.138 1.421.156.078.296.146.437.146.258 0 .452-.097.578-.286a.66.66 0 00.19-.52.67.67 0 00-.253-.494c-.976-.781-1.695-1.189-2.123-1.436l-.238-.136-.126-.073.136-.043c.248-.083.656-.083 1.05-.083.35 0 .723-.276.723-.723a.725.725 0 00-.724-.727zM6.223 25.288c.136-.824-.661-1.353-1.147-1.596l-.01-.004a.503.503 0 00-.296-.097.706.706 0 00-.112.01.814.814 0 00-.52.383.688.688 0 00.22.858l.126.092-.156.025c-.48.077-1.04.16-1.579.237a.791.791 0 00-.656.8c0 .37.38.641.72.646 3.162-.228 3.41-1.092 3.41-1.354zm29.921-2.458H33.38c-.438 0-.724.28-.724.722 0 .441.282.723.724.723h2.764c.437 0 .724-.282.724-.723 0-.442-.287-.723-.724-.723z" fill="#010035"/></svg>