<svg width="44" height="42" fill="none" xmlns="http://www.w3.org/2000/svg"><path d="M20.833 16.653A75.037 75.037 0 0026.27 33.38a3.675 3.675 0 003.313 2.15h.14a22.345 22.345 0 0011.587-3.603 3.702 3.702 0 001.638-3.734 75.175 75.175 0 00-5.85-18.977 3.673 3.673 0 00-3.45-2.148 22.413 22.413 0 00-8.034 1.727l-1.579.734c-.671.346-1.33.725-1.977 1.14a3.707 3.707 0 00-1.639 3.734l.111.634.303 1.616zm1.12-2.641a2.11 2.11 0 01.95-2.01 20.845 20.845 0 0110.783-3.354h.084a2.1 2.1 0 011.89 1.23 73.604 73.604 0 015.727 18.574 2.11 2.11 0 01-.934 2.133 20.845 20.845 0 01-10.784 3.354 2.103 2.103 0 01-1.97-1.23 73.686 73.686 0 01-5.425-16.904l-.32-1.793zm11.934-1.005a.786.786 0 00-.234.036l-8.24 2.563a.795.795 0 00.227 1.552.845.845 0 00.24-.036l8.24-2.563a.795.795 0 00-.233-1.552zm.746 2.421a.79.79 0 00-.234.037l-8.24 2.563a.795.795 0 00.227 1.552.844.844 0 00.24-.036l8.24-2.563a.795.795 0 00-.233-1.553zm2.59 8.56c-.158 0-.32.024-.478.072l-7.684 2.388a1.627 1.627 0 00-1.066 2.034l.713 2.314a1.617 1.617 0 002.022 1.07l7.683-2.388a1.627 1.627 0 001.066-2.034l-.713-2.316a1.618 1.618 0 00-1.542-1.14zm0 1.585c.019 0 .034.012.04.027l.713 2.316c.006.021-.006.046-.027.052l-3.089.96-.736-2.392 3.088-.96c.003-.003.006-.003.012-.003zm-4.61 1.429l.738 2.392-3.088.96a.045.045 0 01-.052-.028L29.5 28.01c-.006-.021.006-.042.027-.051l3.088-.957z" fill="#010035" stroke="#fff" stroke-width=".3"/><path d="M22.273 15.805a8.178 8.178 0 002.268-2.552.796.796 0 00-.294-1.083.789.789 0 00-1.078.295 6.69 6.69 0 01-1.216 1.546s-.752.707-1.423 1.026c-.33.175-.67.32-1.027.433l.41-2.638a2.627 2.627 0 00-1.923-2.954l-6.997-1.85a6.58 6.58 0 016.464-5.443c3.328-.006 6.197 2.525 6.55 5.921.037.34.043.683.028 1.023l1.578-.734a7.596 7.596 0 00-.033-.451C25.14 4.129 21.582.988 17.454 1a8.16 8.16 0 00-7.992 6.625l-2.06-.545a2.615 2.615 0 00-3.125 1.622l-2.909 7.767a2.643 2.643 0 00.126 2.136c.342.662.947 1.15 1.663 1.34l2.318.613-.24 3.083-1.24 2.154a.775.775 0 00-.104.352l-.183 3.265-.935 1.194a.792.792 0 00-.164.424l-.319 3.84-1.177 1.946a.8.8 0 00.039.882l2.186 2.981a.784.784 0 00.875.286l4.122-1.315a.79.79 0 00.524-.553l4.325-16.501 2.193.58a2.625 2.625 0 003.259-2.142l.6-3.848a8.03 8.03 0 001.596-.532l1.44-.848zM6.706 8.575A.994.994 0 017 8.611l2.312.611c.003.27.015.545.042.815.018.178.045.355.075.533a2.412 2.412 0 00-1.938 1.775 2.435 2.435 0 00.249 1.844c.326.56.847.96 1.473 1.125l3.155.833a2.405 2.405 0 001.836-.25 2.416 2.416 0 001.12-1.48 2.435 2.435 0 00-.248-1.844 2.408 2.408 0 00-1.474-1.125l-2.516-.665a6.242 6.242 0 01-.16-.911c-.008-.075-.011-.154-.017-.229l6.68 1.766c.52.139.85.644.767 1.18l-1.277 8.197a1.03 1.03 0 01-.46.716 1.021 1.021 0 01-.84.136L3.561 18.407a1.025 1.025 0 01-.662-.533 1.043 1.043 0 01-.05-.851l2.908-7.768c.153-.409.533-.67.95-.68zm3.13 3.544h.015a7.97 7.97 0 00.737 1.468c.15.235.402.364.66.367a.792.792 0 00.668-1.218c-.025-.036-.046-.075-.07-.111l1.351.358c.45.117.72.58.6 1.031a.839.839 0 01-1.028.602l-3.154-.833a.83.83 0 01-.512-.391.84.84 0 01-.087-.641.854.854 0 01.82-.632zm-2.81 8.845l1.1.292-4.493 17.148-.896-1.222 1-1.651a.784.784 0 00.112-.346l.311-3.788.94-1.203a.798.798 0 00.168-.445l.19-3.328 1.233-2.148a.775.775 0 00.102-.334l.234-2.975zm2.625.695l1.345.355.659.174-4.215 16.08-2.34.746L9.65 21.66z" fill="#E2010B" stroke="#fff" stroke-width=".3"/></svg>