<svg width="67" height="40" fill="none" xmlns="http://www.w3.org/2000/svg"><path d="M30.624 8.235l1.99.986 1.618-.976-.129-.119a.52.52 0 00-.081-.061l-2.929-1.427c-.158-.076-.335-.1-.512-.076L20.613 8.23a.83.83 0 00-.316-.777L10.827.172a.852.852 0 00-.948-.043C3.782 3.945.46 9.771.002 17.45a.85.85 0 00.363.75l9.47 6.522c.14.09.302.138.47.142a.463.463 0 00.081.005c.034 0 .067-.005.106-.01a.84.84 0 00.55-.398l.383-.687 1.292.834 1.22-1.223-1.651-1.071 7.298-12.24 11.04-1.839zm-11.95.062l-8.618 14.529-8.336-5.717c.53-6.774 3.33-11.756 8.556-15.24l8.399 6.428zm33.231 17.975c-.02-.64-.57-1.394-.603-1.436a3.413 3.413 0 00-.55-.593L39.06 14.952l-.047-.038-2.202.431 12.902 10.23c.536.427.684 1.152.383 1.745l-.01-.015-.086.143a1.41 1.41 0 01-2.058.383L36.337 19.01a.848.848 0 00-1.186.156.839.839 0 00.158 1.18l10.958 8.282.603.455 1.838 1.422c.325.242.54.616.593 1.02a1.525 1.525 0 01-2.397 1.426l-2.814-1.99-9.212-6.88a.847.847 0 00-1.345.788.844.844 0 00.33.554l9.648 7.196c.766.579.952 1.655.421 2.451-.268.403-.68.673-1.158.768-.479.095-.962 0-1.364-.27l-.043-.029-4.57-3.218-3.383-2.48a.847.847 0 00-.627-.151.807.807 0 00-.55.336.833.833 0 00.186 1.176l3.192 2.308 2.819 2.058a1.53 1.53 0 01.392 2.133 1.546 1.546 0 01-2.149.394l-6.714-4.314-1.244 1.152 7.02 4.546c.541.35 1.154.521 1.757.521a3.233 3.233 0 002.708-1.455c.287-.441.464-.944.512-1.46.517.294 1.096.45 1.694.45a3.488 3.488 0 003.503-3.247 3.225 3.225 0 004.465-.716 3.175 3.175 0 00-.277-4.081 3.087 3.087 0 001.804-3.22z" fill="#010035"/><path d="M14.87 11.155h.015a2.333 2.333 0 002.335-2.308 2.332 2.332 0 00-2.12-2.314l.01-.023h-.225c-.618 0-1.201.237-1.642.668a2.3 2.3 0 00-.694 1.635 2.333 2.333 0 002.321 2.342zm.66-2.308a.645.645 0 01-.502.625l-.134.005h-.014a.645.645 0 01-.646-.63.644.644 0 01.636-.655h.01c.35 0 .641.28.646.63v.025h.005z" fill="#010035"/><path d="M66.999 17.455c-.46-7.68-3.786-13.51-9.878-17.326a.85.85 0 00-.962.042l-9.456 7.253a.835.835 0 00-.22 1.09l.115.19-2.852 1.133a23.13 23.13 0 01-3.814-1.635c-2.283-1.204-4.015-1.233-5.982-.09l-1.397.848c-.517.223-1.168.427-1.843.635-1.895.588-3.852 1.2-4.364 2.622a2.35 2.35 0 00.344 2.185c2.053 3.129 9.074 1.498 10.452 1.142l2.144-.421-1.474-1.171a.826.826 0 00-.756-.152c-1.92.526-7.676 1.588-8.954-.35l-.01-.015a.798.798 0 01-.186-.664c.23-.626 2.005-1.18 3.182-1.545l.091-.029c1.03-.26 2.02-.663 2.948-1.204 1.66-1.161 2.78-1.483 5.015-.312a22.73 22.73 0 004.427 1.848.845.845 0 00.54-.004l3.37-1.375 7.02 11.87-3.254 2.72.072.1c.004.01.497.702.583 1.28l.03.29 3.473-2.935.565.948c.12.2.32.346.56.398.057.01.12.01.177 0a.905.905 0 00.469-.142l9.47-6.485a.837.837 0 00.355-.74zm-1.718-.351l-8.337 5.703-8.628-14.515 8.398-6.428c5.236 3.484 8.04 8.466 8.567 15.24zm-36.83 11.249a2.972 2.972 0 00-.79.118 3.063 3.063 0 00-4.053-2.318 3.025 3.025 0 00-.809-1.531 2.987 2.987 0 00-1.885-.863c.024-.147.034-.294.034-.44-.005-1.65-1.36-3.006-3.02-3.02h-.024c-.794 0-1.565.322-2.125.881l-3.603 3.589a2.975 2.975 0 00-.895 2.119c-.01.792.287 1.54.842 2.11.522.535 1.21.848 1.953.895a3.014 3.014 0 003.01 3.447c.354 0 .703-.062 1.033-.185a2.99 2.99 0 002.934 2.413h.028c.268-.005.532-.043.785-.119A2.976 2.976 0 0023 37.293a3.028 3.028 0 002.235.602 3.036 3.036 0 001.752-.858l3.618-3.555a2.98 2.98 0 00.89-2.129 3.036 3.036 0 00-.886-2.128 3.05 3.05 0 00-2.158-.872zm-7.441 5.532c-.345 0-.685-.142-.929-.389a1.347 1.347 0 010-1.891l3.613-3.594a1.31 1.31 0 01.929-.388h.019c.359 0 .694.137.943.388.44.441.517 1.138.181 1.66L22.7 32.775a2.908 2.908 0 00-.292.342l-.392.393a1.327 1.327 0 01-.924.389l-.038-.014h-.044zm-2.101-9.633l-3.58 3.56a1.368 1.368 0 01-1.904-.005 1.293 1.293 0 01-.421-.905c0-.35.143-.692.397-.934l3.603-3.593c.254-.256.589-.393.953-.393h.01c.349 0 .688.142.932.393a1.33 1.33 0 01.01 1.877zm-2.88 5.049l.1.08 3.608-3.602a1.33 1.33 0 01.947-.389 1.336 1.336 0 011.398 1.27c.019.403-.144.792-.455 1.062l-3.613 3.55a1.346 1.346 0 01-1.89 0 1.321 1.321 0 01-.01-1.876l-.086-.095zm13.331 2.958l-3.608 3.583a1.367 1.367 0 01-1.9 0 1.338 1.338 0 01-.191-1.65l3.12-3.09c.105-.104.201-.218.287-.341l.393-.384a1.34 1.34 0 011.885-.014l.014.014a1.323 1.323 0 010 1.882z" fill="#E2010B"/><path d="M57.844 16.208v-.019h-.13a2.326 2.326 0 00-2.35 2.304 2.332 2.332 0 002.322 2.337h.014a2.333 2.333 0 002.335-2.309 2.342 2.342 0 00-2.191-2.313zm-.134 2.949a.659.659 0 01-.46-.18.622.622 0 01-.196-.451.637.637 0 01.182-.46.658.658 0 01.455-.199h.014c.35 0 .641.28.646.63v.029c0 .303-.215.56-.502.626l-.14.005z" fill="#E2010B"/></svg>