<svg width="50" height="50" fill="none" xmlns="http://www.w3.org/2000/svg"><path d="M50 25c0 13.807-11.193 25-25 25S0 38.807 0 25 11.193 0 25 0s25 11.193 25 25z" fill="#08AEF2"/><path d="M38 17.366c-.92.402-1.907.674-2.945.796a5.087 5.087 0 002.255-2.793 10.43 10.43 0 01-3.26 1.227A5.151 5.151 0 0030.309 15c-2.833 0-5.13 2.262-5.13 5.05 0 .395.046.781.134 1.15a14.635 14.635 0 01-10.57-5.277 4.955 4.955 0 00-.694 2.539 5.03 5.03 0 002.281 4.203 5.19 5.19 0 01-2.323-.634v.063c0 2.447 1.768 4.488 4.113 4.953-.43.114-.882.177-1.351.177-.331 0-.651-.032-.965-.094.653 2.008 2.546 3.468 4.79 3.508a10.39 10.39 0 01-6.37 2.159c-.414 0-.822-.025-1.223-.07A14.659 14.659 0 0020.861 35c9.434 0 14.591-7.696 14.591-14.37l-.017-.654A10.157 10.157 0 0038 17.366z" fill="#fff"/></svg>